<svg xmlns="http://www.w3.org/2000/svg" xmlns:xlink="http://www.w3.org/1999/xlink" width="500" zoomAndPan="magnify" viewBox="0 0 375 374.999991" height="500" preserveAspectRatio="xMidYMid meet" version="1.0"><defs><g/><clipPath id="75c09a3744"><path d="M 168 224 L 207 224 L 207 262.5 L 168 262.5 Z M 168 224 " clip-rule="nonzero"/></clipPath><clipPath id="54cb9db2a2"><path d="M 121.839844 37.5 L 253.089844 37.5 L 253.089844 211 L 121.839844 211 Z M 121.839844 37.5 " clip-rule="nonzero"/></clipPath></defs><g clip-path="url(#75c09a3744)"><path fill="#000000" d="M 206.214844 243.558594 C 206.214844 244.171875 206.1875 244.785156 206.125 245.394531 C 206.066406 246.007812 205.976562 246.613281 205.855469 247.21875 C 205.734375 247.820312 205.585938 248.414062 205.410156 249.003906 C 205.230469 249.589844 205.023438 250.167969 204.789062 250.734375 C 204.554688 251.304688 204.292969 251.859375 204 252.398438 C 203.710938 252.941406 203.398438 253.46875 203.054688 253.980469 C 202.714844 254.488281 202.347656 254.984375 201.960938 255.457031 C 201.570312 255.933594 201.160156 256.386719 200.722656 256.820312 C 200.289062 257.257812 199.835938 257.667969 199.359375 258.058594 C 198.886719 258.449219 198.394531 258.8125 197.882812 259.15625 C 197.371094 259.496094 196.847656 259.8125 196.304688 260.101562 C 195.761719 260.390625 195.207031 260.652344 194.640625 260.886719 C 194.074219 261.121094 193.496094 261.328125 192.910156 261.507812 C 192.320312 261.6875 191.726562 261.835938 191.125 261.957031 C 190.523438 262.074219 189.914062 262.164062 189.304688 262.226562 C 188.691406 262.285156 188.078125 262.316406 187.464844 262.316406 C 186.851562 262.316406 186.238281 262.285156 185.628906 262.226562 C 185.015625 262.164062 184.410156 262.074219 183.808594 261.957031 C 183.207031 261.835938 182.609375 261.6875 182.023438 261.507812 C 181.433594 261.328125 180.859375 261.121094 180.289062 260.886719 C 179.722656 260.652344 179.167969 260.390625 178.628906 260.101562 C 178.085938 259.8125 177.558594 259.496094 177.050781 259.15625 C 176.539062 258.8125 176.046875 258.449219 175.570312 258.058594 C 175.097656 257.667969 174.640625 257.257812 174.207031 256.820312 C 173.773438 256.386719 173.363281 255.933594 172.972656 255.457031 C 172.582031 254.984375 172.21875 254.488281 171.875 253.980469 C 171.535156 253.46875 171.21875 252.941406 170.929688 252.398438 C 170.640625 251.859375 170.378906 251.304688 170.144531 250.734375 C 169.90625 250.167969 169.703125 249.589844 169.523438 249.003906 C 169.34375 248.414062 169.195312 247.820312 169.078125 247.21875 C 168.957031 246.613281 168.867188 246.007812 168.804688 245.394531 C 168.746094 244.785156 168.714844 244.171875 168.714844 243.558594 C 168.714844 242.941406 168.746094 242.332031 168.804688 241.71875 C 168.867188 241.105469 168.957031 240.5 169.078125 239.898438 C 169.195312 239.296875 169.34375 238.699219 169.523438 238.113281 C 169.703125 237.523438 169.90625 236.945312 170.144531 236.378906 C 170.378906 235.8125 170.640625 235.257812 170.929688 234.714844 C 171.21875 234.171875 171.535156 233.648438 171.875 233.136719 C 172.21875 232.625 172.582031 232.132812 172.972656 231.65625 C 173.363281 231.183594 173.773438 230.726562 174.207031 230.292969 C 174.640625 229.859375 175.097656 229.445312 175.570312 229.058594 C 176.046875 228.667969 176.539062 228.300781 177.050781 227.960938 C 177.558594 227.617188 178.085938 227.304688 178.628906 227.015625 C 179.167969 226.722656 179.722656 226.460938 180.289062 226.226562 C 180.859375 225.992188 181.433594 225.785156 182.023438 225.605469 C 182.609375 225.429688 183.207031 225.277344 183.808594 225.160156 C 184.410156 225.039062 185.015625 224.949219 185.628906 224.890625 C 186.238281 224.828125 186.851562 224.800781 187.464844 224.800781 C 188.078125 224.800781 188.691406 224.828125 189.304688 224.890625 C 189.914062 224.949219 190.523438 225.039062 191.125 225.160156 C 191.726562 225.277344 192.320312 225.429688 192.910156 225.605469 C 193.496094 225.785156 194.074219 225.992188 194.640625 226.226562 C 195.207031 226.460938 195.761719 226.722656 196.304688 227.015625 C 196.847656 227.304688 197.371094 227.617188 197.882812 227.960938 C 198.394531 228.300781 198.886719 228.667969 199.359375 229.058594 C 199.835938 229.445312 200.289062 229.859375 200.722656 230.292969 C 201.160156 230.726562 201.570312 231.183594 201.960938 231.65625 C 202.347656 232.132812 202.714844 232.625 203.054688 233.136719 C 203.398438 233.648438 203.710938 234.171875 204 234.714844 C 204.292969 235.257812 204.554688 235.8125 204.789062 236.378906 C 205.023438 236.945312 205.230469 237.523438 205.410156 238.113281 C 205.585938 238.699219 205.734375 239.296875 205.855469 239.898438 C 205.976562 240.5 206.066406 241.105469 206.125 241.71875 C 206.1875 242.332031 206.214844 242.941406 206.214844 243.558594 Z M 206.214844 243.558594 " fill-opacity="1" fill-rule="nonzero"/></g><g clip-path="url(#54cb9db2a2)"><path fill="#000000" d="M 253.089844 102.871094 C 253.089844 101.796875 253.066406 100.722656 253.011719 99.648438 C 252.960938 98.574219 252.878906 97.503906 252.773438 96.433594 C 252.667969 95.363281 252.539062 94.300781 252.378906 93.234375 C 252.222656 92.171875 252.039062 91.113281 251.828125 90.0625 C 251.621094 89.007812 251.386719 87.960938 251.125 86.917969 C 250.863281 85.875 250.578125 84.839844 250.265625 83.8125 C 249.953125 82.78125 249.617188 81.761719 249.253906 80.75 C 248.894531 79.738281 248.507812 78.738281 248.09375 77.746094 C 247.683594 76.753906 247.25 75.769531 246.789062 74.796875 C 246.332031 73.828125 245.847656 72.867188 245.34375 71.921875 C 244.835938 70.972656 244.304688 70.039062 243.753906 69.117188 C 243.203125 68.195312 242.628906 67.289062 242.03125 66.394531 C 241.433594 65.5 240.816406 64.621094 240.175781 63.757812 C 239.535156 62.894531 238.875 62.050781 238.195312 61.21875 C 237.511719 60.386719 236.8125 59.574219 236.089844 58.777344 C 235.371094 57.984375 234.628906 57.203125 233.871094 56.445312 C 233.109375 55.683594 232.332031 54.945312 231.535156 54.222656 C 230.742188 53.5 229.929688 52.800781 229.097656 52.117188 C 228.269531 51.4375 227.421875 50.777344 226.558594 50.136719 C 225.695312 49.496094 224.816406 48.878906 223.925781 48.28125 C 223.03125 47.683594 222.125 47.109375 221.203125 46.554688 C 220.28125 46.003906 219.347656 45.472656 218.402344 44.96875 C 217.453125 44.460938 216.496094 43.976562 215.523438 43.519531 C 214.554688 43.058594 213.570312 42.625 212.578125 42.214844 C 211.585938 41.800781 210.585938 41.414062 209.574219 41.054688 C 208.5625 40.691406 207.542969 40.355469 206.515625 40.042969 C 205.488281 39.730469 204.453125 39.445312 203.410156 39.183594 C 202.371094 38.921875 201.320312 38.6875 200.269531 38.476562 C 199.214844 38.265625 198.15625 38.082031 197.09375 37.925781 C 196.03125 37.769531 194.96875 37.636719 193.898438 37.53125 C 192.828125 37.425781 191.757812 37.347656 190.6875 37.292969 C 189.613281 37.242188 188.539062 37.214844 187.464844 37.214844 C 186.390625 37.214844 185.320312 37.242188 184.246094 37.292969 C 183.171875 37.347656 182.101562 37.425781 181.035156 37.53125 C 179.964844 37.636719 178.898438 37.769531 177.835938 37.925781 C 176.773438 38.082031 175.714844 38.265625 174.664062 38.476562 C 173.609375 38.6875 172.5625 38.921875 171.519531 39.183594 C 170.476562 39.445312 169.445312 39.730469 168.414062 40.042969 C 167.386719 40.355469 166.367188 40.691406 165.359375 41.054688 C 164.347656 41.414062 163.34375 41.800781 162.351562 42.214844 C 161.359375 42.625 160.378906 43.058594 159.40625 43.519531 C 158.4375 43.976562 157.476562 44.460938 156.53125 44.96875 C 155.582031 45.472656 154.648438 46.003906 153.726562 46.554688 C 152.808594 47.109375 151.898438 47.683594 151.007812 48.28125 C 150.113281 48.878906 149.234375 49.496094 148.375 50.136719 C 147.511719 50.777344 146.664062 51.4375 145.832031 52.117188 C 145.003906 52.800781 144.191406 53.5 143.394531 54.222656 C 142.597656 54.945312 141.820312 55.683594 141.0625 56.445312 C 140.300781 57.203125 139.5625 57.984375 138.839844 58.777344 C 138.121094 59.574219 137.417969 60.386719 136.738281 61.21875 C 136.054688 62.050781 135.394531 62.894531 134.753906 63.757812 C 134.117188 64.621094 133.496094 65.5 132.902344 66.394531 C 132.304688 67.289062 131.730469 68.195312 131.175781 69.117188 C 130.625 70.039062 130.097656 70.972656 129.589844 71.921875 C 129.082031 72.867188 128.601562 73.828125 128.140625 74.796875 C 127.683594 75.769531 127.246094 76.753906 126.835938 77.746094 C 126.425781 78.738281 126.039062 79.738281 125.675781 80.75 C 125.316406 81.761719 124.976562 82.78125 124.667969 83.8125 C 124.355469 84.839844 124.070312 85.875 123.808594 86.917969 C 123.546875 87.960938 123.3125 89.007812 123.101562 90.0625 C 122.890625 91.113281 122.707031 92.171875 122.550781 93.234375 C 122.394531 94.300781 122.261719 95.363281 122.15625 96.433594 C 122.050781 97.503906 121.972656 98.574219 121.921875 99.648438 C 121.867188 100.722656 121.839844 101.796875 121.839844 102.871094 C 121.839844 103.484375 121.871094 104.097656 121.929688 104.707031 C 121.992188 105.320312 122.082031 105.925781 122.203125 106.527344 C 122.320312 107.132812 122.46875 107.726562 122.648438 108.316406 C 122.828125 108.902344 123.03125 109.480469 123.269531 110.046875 C 123.503906 110.617188 123.765625 111.171875 124.054688 111.710938 C 124.34375 112.253906 124.660156 112.78125 125 113.292969 C 125.34375 113.800781 125.707031 114.292969 126.097656 114.769531 C 126.488281 115.246094 126.898438 115.699219 127.332031 116.132812 C 127.765625 116.566406 128.222656 116.980469 128.695312 117.371094 C 129.171875 117.757812 129.664062 118.125 130.175781 118.464844 C 130.683594 118.808594 131.210938 119.125 131.753906 119.414062 C 132.292969 119.703125 132.847656 119.964844 133.414062 120.199219 C 133.984375 120.433594 134.558594 120.640625 135.148438 120.820312 C 135.734375 121 136.332031 121.148438 136.933594 121.265625 C 137.535156 121.386719 138.140625 121.476562 138.753906 121.539062 C 139.363281 121.597656 139.976562 121.628906 140.589844 121.628906 C 141.203125 121.628906 141.816406 121.597656 142.429688 121.539062 C 143.039062 121.476562 143.648438 121.386719 144.25 121.265625 C 144.851562 121.148438 145.445312 121 146.035156 120.820312 C 146.621094 120.640625 147.199219 120.433594 147.765625 120.199219 C 148.332031 119.964844 148.886719 119.703125 149.429688 119.414062 C 149.972656 119.125 150.496094 118.808594 151.007812 118.464844 C 151.519531 118.125 152.011719 117.757812 152.484375 117.371094 C 152.960938 116.980469 153.414062 116.566406 153.847656 116.132812 C 154.285156 115.699219 154.695312 115.246094 155.085938 114.769531 C 155.472656 114.292969 155.839844 113.800781 156.179688 113.292969 C 156.523438 112.78125 156.835938 112.253906 157.125 111.710938 C 157.417969 111.171875 157.679688 110.617188 157.914062 110.046875 C 158.148438 109.480469 158.355469 108.902344 158.535156 108.316406 C 158.710938 107.726562 158.859375 107.132812 158.980469 106.527344 C 159.101562 105.925781 159.191406 105.320312 159.25 104.707031 C 159.3125 104.097656 159.339844 103.484375 159.339844 102.871094 C 159.339844 101.949219 159.386719 101.027344 159.476562 100.113281 C 159.566406 99.195312 159.703125 98.285156 159.882812 97.378906 C 160.0625 96.476562 160.285156 95.582031 160.550781 94.703125 C 160.820312 93.820312 161.128906 92.953125 161.480469 92.101562 C 161.835938 91.25 162.226562 90.417969 162.660156 89.605469 C 163.097656 88.792969 163.570312 88.003906 164.082031 87.238281 C 164.59375 86.472656 165.140625 85.730469 165.726562 85.019531 C 166.308594 84.308594 166.925781 83.625 167.578125 82.972656 C 168.230469 82.320312 168.910156 81.703125 169.625 81.117188 C 170.335938 80.535156 171.074219 79.984375 171.839844 79.472656 C 172.605469 78.960938 173.394531 78.488281 174.207031 78.054688 C 175.019531 77.621094 175.851562 77.226562 176.703125 76.875 C 177.554688 76.519531 178.421875 76.210938 179.300781 75.945312 C 180.183594 75.675781 181.074219 75.453125 181.980469 75.273438 C 182.882812 75.09375 183.792969 74.957031 184.710938 74.867188 C 185.625 74.777344 186.542969 74.730469 187.464844 74.730469 C 188.386719 74.730469 189.304688 74.777344 190.222656 74.867188 C 191.140625 74.957031 192.050781 75.09375 192.953125 75.273438 C 193.855469 75.453125 194.75 75.675781 195.628906 75.945312 C 196.511719 76.210938 197.378906 76.519531 198.230469 76.875 C 199.078125 77.226562 199.910156 77.621094 200.722656 78.054688 C 201.535156 78.488281 202.324219 78.960938 203.089844 79.472656 C 203.855469 79.984375 204.597656 80.535156 205.308594 81.117188 C 206.019531 81.703125 206.703125 82.320312 207.351562 82.972656 C 208.003906 83.625 208.621094 84.308594 209.207031 85.019531 C 209.792969 85.730469 210.339844 86.472656 210.851562 87.238281 C 211.363281 88.003906 211.835938 88.792969 212.269531 89.605469 C 212.703125 90.417969 213.097656 91.25 213.449219 92.101562 C 213.800781 92.953125 214.113281 93.820312 214.378906 94.703125 C 214.648438 95.582031 214.871094 96.476562 215.050781 97.378906 C 215.230469 98.285156 215.363281 99.195312 215.457031 100.113281 C 215.546875 101.027344 215.589844 101.949219 215.589844 102.871094 C 215.589844 103.792969 215.546875 104.710938 215.457031 105.628906 C 215.363281 106.542969 215.230469 107.457031 215.050781 108.359375 C 214.871094 109.261719 214.648438 110.15625 214.378906 111.039062 C 214.113281 111.917969 213.800781 112.785156 213.449219 113.636719 C 213.097656 114.488281 212.703125 115.320312 212.269531 116.132812 C 211.835938 116.945312 211.363281 117.734375 210.851562 118.503906 C 210.339844 119.269531 209.792969 120.007812 209.207031 120.71875 C 208.621094 121.433594 208.003906 122.113281 207.351562 122.765625 C 206.703125 123.417969 206.019531 124.035156 205.308594 124.621094 C 204.597656 125.203125 203.855469 125.753906 203.089844 126.265625 C 202.324219 126.777344 201.535156 127.25 200.722656 127.683594 C 199.910156 128.117188 199.078125 128.511719 198.230469 128.867188 C 197.378906 129.21875 196.511719 129.527344 195.628906 129.796875 C 194.75 130.0625 193.855469 130.285156 192.953125 130.464844 C 192.050781 130.644531 191.140625 130.78125 190.222656 130.871094 C 189.304688 130.960938 188.386719 131.007812 187.464844 131.007812 C 186.851562 131.007812 186.238281 131.039062 185.628906 131.097656 C 185.015625 131.15625 184.410156 131.246094 183.808594 131.367188 C 183.207031 131.488281 182.609375 131.636719 182.023438 131.816406 C 181.433594 131.992188 180.859375 132.199219 180.289062 132.433594 C 179.722656 132.671875 179.167969 132.933594 178.628906 133.222656 C 178.085938 133.511719 177.558594 133.828125 177.050781 134.167969 C 176.539062 134.511719 176.046875 134.875 175.570312 135.265625 C 175.097656 135.65625 174.640625 136.066406 174.207031 136.5 C 173.773438 136.9375 173.363281 137.390625 172.972656 137.867188 C 172.582031 138.339844 172.21875 138.832031 171.875 139.34375 C 171.535156 139.855469 171.21875 140.382812 170.929688 140.921875 C 170.640625 141.464844 170.378906 142.019531 170.144531 142.585938 C 169.910156 143.15625 169.703125 143.734375 169.523438 144.320312 C 169.34375 144.910156 169.195312 145.503906 169.078125 146.105469 C 168.957031 146.707031 168.867188 147.316406 168.804688 147.925781 C 168.746094 148.539062 168.714844 149.152344 168.714844 149.765625 L 168.714844 191.972656 C 168.714844 192.585938 168.746094 193.199219 168.804688 193.808594 C 168.867188 194.421875 168.957031 195.027344 169.078125 195.632812 C 169.195312 196.234375 169.34375 196.828125 169.523438 197.417969 C 169.703125 198.003906 169.90625 198.582031 170.144531 199.148438 C 170.378906 199.71875 170.640625 200.273438 170.929688 200.816406 C 171.21875 201.355469 171.535156 201.882812 171.875 202.394531 C 172.21875 202.902344 172.582031 203.398438 172.972656 203.871094 C 173.363281 204.347656 173.773438 204.800781 174.207031 205.234375 C 174.640625 205.671875 175.097656 206.082031 175.570312 206.472656 C 176.046875 206.863281 176.539062 207.226562 177.050781 207.570312 C 177.558594 207.910156 178.085938 208.226562 178.628906 208.515625 C 179.167969 208.804688 179.722656 209.066406 180.289062 209.300781 C 180.859375 209.539062 181.433594 209.742188 182.023438 209.921875 C 182.609375 210.101562 183.207031 210.25 183.808594 210.371094 C 184.410156 210.488281 185.015625 210.578125 185.628906 210.640625 C 186.238281 210.699219 186.851562 210.730469 187.464844 210.730469 C 188.078125 210.730469 188.691406 210.699219 189.304688 210.640625 C 189.914062 210.578125 190.523438 210.488281 191.125 210.371094 C 191.726562 210.25 192.320312 210.101562 192.910156 209.921875 C 193.496094 209.742188 194.074219 209.539062 194.640625 209.300781 C 195.207031 209.066406 195.761719 208.804688 196.304688 208.515625 C 196.847656 208.226562 197.371094 207.910156 197.882812 207.570312 C 198.394531 207.226562 198.886719 206.863281 199.359375 206.472656 C 199.835938 206.082031 200.289062 205.671875 200.722656 205.234375 C 201.160156 204.800781 201.570312 204.347656 201.960938 203.871094 C 202.347656 203.398438 202.714844 202.902344 203.054688 202.394531 C 203.398438 201.882812 203.710938 201.355469 204 200.816406 C 204.292969 200.273438 204.554688 199.71875 204.789062 199.148438 C 205.023438 198.582031 205.230469 198.003906 205.410156 197.417969 C 205.585938 196.828125 205.734375 196.234375 205.855469 195.632812 C 205.976562 195.027344 206.066406 194.421875 206.125 193.808594 C 206.1875 193.199219 206.214844 192.585938 206.214844 191.972656 L 206.214844 165.757812 C 207.894531 165.257812 209.550781 164.6875 211.179688 164.054688 C 212.8125 163.417969 214.417969 162.71875 215.996094 161.957031 C 217.570312 161.195312 219.113281 160.367188 220.625 159.480469 C 222.136719 158.59375 223.609375 157.648438 225.042969 156.644531 C 226.480469 155.640625 227.871094 154.582031 229.222656 153.464844 C 230.574219 152.351562 231.875 151.183594 233.132812 149.960938 C 234.390625 148.742188 235.597656 147.472656 236.753906 146.15625 C 237.90625 144.839844 239.007812 143.480469 240.054688 142.074219 C 241.101562 140.671875 242.09375 139.226562 243.023438 137.742188 C 243.957031 136.257812 244.828125 134.742188 245.636719 133.1875 C 246.445312 131.632812 247.195312 130.050781 247.878906 128.4375 C 248.5625 126.824219 249.179688 125.1875 249.730469 123.523438 C 250.285156 121.859375 250.769531 120.179688 251.1875 118.476562 C 251.605469 116.777344 251.957031 115.058594 252.238281 113.332031 C 252.519531 111.601562 252.730469 109.863281 252.875 108.117188 C 253.015625 106.371094 253.089844 104.621094 253.089844 102.871094 Z M 253.089844 102.871094 " fill-opacity="1" fill-rule="nonzero"/></g><g fill="#000000" fill-opacity="1"><g transform="translate(133.851907, 329.551502)"><g><path d="M 20.609375 -2.578125 C 20.710938 -2.285156 20.765625 -2.019531 20.765625 -1.78125 C 20.765625 -1.207031 20.578125 -0.738281 20.203125 -0.375 C 19.828125 -0.0078125 19.398438 0.171875 18.921875 0.171875 C 18.523438 0.171875 18.164062 0.0507812 17.84375 -0.1875 C 17.519531 -0.4375 17.273438 -0.769531 17.109375 -1.1875 L 15.390625 -5.1875 L 5.546875 -5.1875 L 3.828125 -1.15625 C 3.671875 -0.738281 3.429688 -0.410156 3.109375 -0.171875 C 2.796875 0.0546875 2.453125 0.171875 2.078125 0.171875 C 1.503906 0.171875 1.066406 0.015625 0.765625 -0.296875 C 0.472656 -0.609375 0.328125 -1.023438 0.328125 -1.546875 C 0.328125 -1.742188 0.359375 -1.953125 0.421875 -2.171875 L 8.65625 -21.921875 C 8.832031 -22.359375 9.09375 -22.695312 9.4375 -22.9375 C 9.789062 -23.1875 10.1875 -23.289062 10.625 -23.25 C 11.019531 -23.25 11.390625 -23.128906 11.734375 -22.890625 C 12.078125 -22.660156 12.328125 -22.335938 12.484375 -21.921875 Z M 7.171875 -8.984375 L 13.765625 -8.984375 L 10.4375 -16.703125 Z M 7.171875 -8.984375 "/></g></g></g><g fill="#000000" fill-opacity="1"><g transform="translate(154.9464, 329.551502)"><g><path d="M 7.859375 0.328125 C 6.597656 0.328125 5.425781 0.0703125 4.34375 -0.4375 C 3.269531 -0.957031 2.394531 -1.679688 1.71875 -2.609375 C 1.457031 -3.003906 1.328125 -3.390625 1.328125 -3.765625 C 1.328125 -4.296875 1.535156 -4.753906 1.953125 -5.140625 C 2.367188 -5.523438 2.796875 -5.71875 3.234375 -5.71875 C 3.804688 -5.71875 4.421875 -5.382812 5.078125 -4.71875 C 5.503906 -4.320312 5.9375 -4.039062 6.375 -3.875 C 6.8125 -3.707031 7.304688 -3.625 7.859375 -3.625 C 8.492188 -3.625 9.101562 -3.789062 9.6875 -4.125 C 10.269531 -4.457031 10.738281 -4.90625 11.09375 -5.46875 C 11.445312 -6.03125 11.625 -6.617188 11.625 -7.234375 L 11.625 -21.09375 C 11.625 -21.664062 11.832031 -22.144531 12.25 -22.53125 C 12.664062 -22.914062 13.148438 -23.109375 13.703125 -23.109375 C 14.316406 -23.109375 14.8125 -22.921875 15.1875 -22.546875 C 15.5625 -22.171875 15.75 -21.6875 15.75 -21.09375 L 15.75 -7.234375 C 15.75 -5.910156 15.394531 -4.664062 14.6875 -3.5 C 13.988281 -2.332031 13.03125 -1.398438 11.8125 -0.703125 C 10.601562 -0.015625 9.285156 0.328125 7.859375 0.328125 Z M 7.859375 0.328125 "/></g></g></g><g fill="#000000" fill-opacity="1"><g transform="translate(173.168872, 329.551502)"><g><path d="M 18.890625 -23.140625 C 19.460938 -23.140625 19.921875 -22.953125 20.265625 -22.578125 C 20.617188 -22.203125 20.796875 -21.71875 20.796875 -21.125 L 20.796875 -9.171875 C 20.796875 -7.347656 20.410156 -5.734375 19.640625 -4.328125 C 18.867188 -2.921875 17.789062 -1.816406 16.40625 -1.015625 C 15.019531 -0.222656 13.4375 0.171875 11.65625 0.171875 C 9.875 0.171875 8.28125 -0.222656 6.875 -1.015625 C 5.476562 -1.816406 4.394531 -2.921875 3.625 -4.328125 C 2.851562 -5.734375 2.46875 -7.347656 2.46875 -9.171875 L 2.46875 -21.125 C 2.46875 -21.695312 2.664062 -22.175781 3.0625 -22.5625 C 3.46875 -22.945312 3.976562 -23.140625 4.59375 -23.140625 C 5.113281 -23.140625 5.570312 -22.945312 5.96875 -22.5625 C 6.363281 -22.175781 6.5625 -21.695312 6.5625 -21.125 L 6.5625 -9.171875 C 6.5625 -8.117188 6.789062 -7.179688 7.25 -6.359375 C 7.71875 -5.535156 8.34375 -4.898438 9.125 -4.453125 C 9.90625 -4.015625 10.75 -3.796875 11.65625 -3.796875 C 12.601562 -3.796875 13.488281 -4.015625 14.3125 -4.453125 C 15.132812 -4.898438 15.789062 -5.535156 16.28125 -6.359375 C 16.78125 -7.179688 17.03125 -8.117188 17.03125 -9.171875 L 17.03125 -21.125 C 17.03125 -21.71875 17.195312 -22.203125 17.53125 -22.578125 C 17.863281 -22.953125 18.316406 -23.140625 18.890625 -23.140625 Z M 18.890625 -23.140625 "/></g></g></g><g fill="#000000" fill-opacity="1"><g transform="translate(196.442147, 329.551502)"><g><path d="M 12.375 -23.109375 C 14.445312 -23.109375 16.222656 -22.597656 17.703125 -21.578125 C 19.191406 -20.554688 20.328125 -19.171875 21.109375 -17.421875 C 21.890625 -15.671875 22.28125 -13.71875 22.28125 -11.5625 C 22.28125 -9.394531 21.890625 -7.4375 21.109375 -5.6875 C 20.328125 -3.945312 19.191406 -2.5625 17.703125 -1.53125 C 16.222656 -0.507812 14.445312 0 12.375 0 L 4.484375 0 C 3.910156 0 3.429688 -0.191406 3.046875 -0.578125 C 2.660156 -0.960938 2.46875 -1.441406 2.46875 -2.015625 L 2.46875 -21.09375 C 2.46875 -21.664062 2.660156 -22.144531 3.046875 -22.53125 C 3.429688 -22.914062 3.910156 -23.109375 4.484375 -23.109375 Z M 12.046875 -3.796875 C 14.023438 -3.796875 15.507812 -4.523438 16.5 -5.984375 C 17.5 -7.453125 18 -9.3125 18 -11.5625 C 18 -13.800781 17.492188 -15.648438 16.484375 -17.109375 C 15.484375 -18.578125 14.003906 -19.3125 12.046875 -19.3125 L 6.609375 -19.3125 L 6.609375 -3.796875 Z M 12.046875 -3.796875 "/></g></g></g><g fill="#000000" fill-opacity="1"><g transform="translate(220.045539, 329.551502)"><g><path d="M 20.609375 -2.578125 C 20.710938 -2.285156 20.765625 -2.019531 20.765625 -1.78125 C 20.765625 -1.207031 20.578125 -0.738281 20.203125 -0.375 C 19.828125 -0.0078125 19.398438 0.171875 18.921875 0.171875 C 18.523438 0.171875 18.164062 0.0507812 17.84375 -0.1875 C 17.519531 -0.4375 17.273438 -0.769531 17.109375 -1.1875 L 15.390625 -5.1875 L 5.546875 -5.1875 L 3.828125 -1.15625 C 3.671875 -0.738281 3.429688 -0.410156 3.109375 -0.171875 C 2.796875 0.0546875 2.453125 0.171875 2.078125 0.171875 C 1.503906 0.171875 1.066406 0.015625 0.765625 -0.296875 C 0.472656 -0.609375 0.328125 -1.023438 0.328125 -1.546875 C 0.328125 -1.742188 0.359375 -1.953125 0.421875 -2.171875 L 8.65625 -21.921875 C 8.832031 -22.359375 9.09375 -22.695312 9.4375 -22.9375 C 9.789062 -23.1875 10.1875 -23.289062 10.625 -23.25 C 11.019531 -23.25 11.390625 -23.128906 11.734375 -22.890625 C 12.078125 -22.660156 12.328125 -22.335938 12.484375 -21.921875 Z M 7.171875 -8.984375 L 13.765625 -8.984375 L 10.4375 -16.703125 Z M 7.171875 -8.984375 "/></g></g></g></svg>