<svg xmlns="http://www.w3.org/2000/svg" xmlns:xlink="http://www.w3.org/1999/xlink" width="500" zoomAndPan="magnify" viewBox="0 0 375 374.999991" height="500" preserveAspectRatio="xMidYMid meet" version="1.0"><defs><g/><clipPath id="c473343e82"><path d="M 73.59375 40 L 301.59375 40 L 301.59375 265 L 73.59375 265 Z M 73.59375 40 " clip-rule="nonzero"/></clipPath></defs><g clip-path="url(#c473343e82)"><path fill="#000000" d="M 193.914062 65.675781 C 190.085938 63.125 185.097656 63.125 181.269531 65.675781 L 101.46875 118.875 C 98.296875 120.992188 96.390625 124.550781 96.390625 128.363281 L 96.390625 230.160156 C 96.390625 236.457031 101.496094 241.558594 107.792969 241.558594 L 141.992188 241.558594 L 141.992188 195.960938 C 141.992188 177.070312 157.304688 161.761719 176.191406 161.761719 L 198.992188 161.761719 C 217.882812 161.761719 233.191406 177.070312 233.191406 195.960938 L 233.191406 241.558594 L 267.390625 241.558594 C 273.6875 241.558594 278.792969 236.457031 278.792969 230.160156 L 278.792969 128.363281 C 278.792969 124.550781 276.886719 120.992188 273.714844 118.875 Z M 168.621094 46.707031 C 180.109375 39.046875 195.074219 39.046875 206.5625 46.707031 L 286.363281 99.90625 C 295.878906 106.25 301.59375 116.925781 301.59375 128.363281 L 301.59375 230.160156 C 301.59375 249.046875 286.28125 264.359375 267.390625 264.359375 L 221.792969 264.359375 C 215.496094 264.359375 210.390625 259.257812 210.390625 252.960938 L 210.390625 195.960938 C 210.390625 189.664062 205.289062 184.558594 198.992188 184.558594 L 176.191406 184.558594 C 169.894531 184.558594 164.792969 189.664062 164.792969 195.960938 L 164.792969 252.960938 C 164.792969 259.257812 159.6875 264.359375 153.390625 264.359375 L 107.792969 264.359375 C 88.902344 264.359375 73.59375 249.046875 73.59375 230.160156 L 73.59375 128.363281 C 73.59375 116.925781 79.308594 106.25 88.820312 99.90625 Z M 168.621094 46.707031 " fill-opacity="1" fill-rule="evenodd"/></g><g fill="#000000" fill-opacity="1"><g transform="translate(125.044919, 327.603991)"><g><path d="M 25.328125 -30.46875 C 26.140625 -30.46875 26.789062 -30.21875 27.28125 -29.71875 C 27.78125 -29.226562 28.03125 -28.59375 28.03125 -27.8125 L 28.03125 -2.65625 C 28.03125 -1.90625 27.769531 -1.273438 27.25 -0.765625 C 26.726562 -0.253906 26.0625 0 25.25 0 C 24.519531 0 23.894531 -0.253906 23.375 -0.765625 C 22.851562 -1.273438 22.59375 -1.90625 22.59375 -2.65625 L 22.59375 -12.796875 L 8.703125 -12.796875 L 8.703125 -2.65625 C 8.703125 -1.90625 8.425781 -1.273438 7.875 -0.765625 C 7.320312 -0.253906 6.6875 0 5.96875 0 C 5.175781 0 4.523438 -0.253906 4.015625 -0.765625 C 3.515625 -1.273438 3.265625 -1.90625 3.265625 -2.65625 L 3.265625 -27.8125 C 3.265625 -28.570312 3.523438 -29.203125 4.046875 -29.703125 C 4.566406 -30.210938 5.234375 -30.46875 6.046875 -30.46875 C 6.773438 -30.46875 7.398438 -30.210938 7.921875 -29.703125 C 8.441406 -29.203125 8.703125 -28.570312 8.703125 -27.8125 L 8.703125 -17.796875 L 22.59375 -17.796875 L 22.59375 -27.8125 C 22.59375 -28.570312 22.867188 -29.203125 23.421875 -29.703125 C 23.972656 -30.210938 24.609375 -30.46875 25.328125 -30.46875 Z M 25.328125 -30.46875 "/></g></g></g><g fill="#000000" fill-opacity="1"><g transform="translate(156.346659, 327.603991)"><g><path d="M 31.296875 -15.234375 C 31.296875 -12.359375 30.65625 -9.722656 29.375 -7.328125 C 28.101562 -4.941406 26.34375 -3.050781 24.09375 -1.65625 C 21.84375 -0.257812 19.3125 0.4375 16.5 0.4375 C 13.6875 0.4375 11.15625 -0.257812 8.90625 -1.65625 C 6.65625 -3.050781 4.894531 -4.941406 3.625 -7.328125 C 2.363281 -9.722656 1.734375 -12.359375 1.734375 -15.234375 C 1.734375 -18.109375 2.363281 -20.742188 3.625 -23.140625 C 4.894531 -25.535156 6.65625 -27.425781 8.90625 -28.8125 C 11.15625 -30.207031 13.6875 -30.90625 16.5 -30.90625 C 19.3125 -30.90625 21.84375 -30.207031 24.09375 -28.8125 C 26.34375 -27.425781 28.101562 -25.535156 29.375 -23.140625 C 30.65625 -20.742188 31.296875 -18.109375 31.296875 -15.234375 Z M 25.640625 -15.234375 C 25.640625 -17.179688 25.25 -18.941406 24.46875 -20.515625 C 23.6875 -22.097656 22.597656 -23.351562 21.203125 -24.28125 C 19.804688 -25.21875 18.238281 -25.6875 16.5 -25.6875 C 14.726562 -25.6875 13.148438 -25.226562 11.765625 -24.3125 C 10.390625 -23.394531 9.316406 -22.140625 8.546875 -20.546875 C 7.785156 -18.953125 7.40625 -17.179688 7.40625 -15.234375 C 7.40625 -13.285156 7.785156 -11.515625 8.546875 -9.921875 C 9.316406 -8.328125 10.390625 -7.070312 11.765625 -6.15625 C 13.148438 -5.238281 14.726562 -4.78125 16.5 -4.78125 C 18.238281 -4.78125 19.804688 -5.242188 21.203125 -6.171875 C 22.597656 -7.109375 23.6875 -8.363281 24.46875 -9.9375 C 25.25 -11.519531 25.640625 -13.285156 25.640625 -15.234375 Z M 25.640625 -15.234375 "/></g></g></g><g fill="#000000" fill-opacity="1"><g transform="translate(189.389813, 327.603991)"><g><path d="M 29.6875 -30.515625 C 30.414062 -30.515625 31.046875 -30.257812 31.578125 -29.75 C 32.117188 -29.238281 32.390625 -28.609375 32.390625 -27.859375 L 32.390625 -2.65625 C 32.390625 -1.90625 32.140625 -1.273438 31.640625 -0.765625 C 31.148438 -0.253906 30.5 0 29.6875 0 C 28.875 0 28.210938 -0.242188 27.703125 -0.734375 C 27.203125 -1.234375 26.953125 -1.875 26.953125 -2.65625 L 26.953125 -20.203125 L 19.765625 -9.234375 C 19.472656 -8.878906 19.140625 -8.59375 18.765625 -8.375 C 18.390625 -8.15625 18 -8.0625 17.59375 -8.09375 C 17.207031 -8.0625 16.828125 -8.15625 16.453125 -8.375 C 16.078125 -8.59375 15.742188 -8.878906 15.453125 -9.234375 L 8.265625 -20.59375 L 8.265625 -2.65625 C 8.265625 -1.875 8.03125 -1.234375 7.5625 -0.734375 C 7.101562 -0.242188 6.5 0 5.75 0 C 5.019531 0 4.421875 -0.253906 3.953125 -0.765625 C 3.492188 -1.273438 3.265625 -1.90625 3.265625 -2.65625 L 3.265625 -27.859375 C 3.265625 -28.585938 3.53125 -29.210938 4.0625 -29.734375 C 4.601562 -30.253906 5.25 -30.515625 6 -30.515625 C 6.4375 -30.515625 6.875 -30.40625 7.3125 -30.1875 C 7.75 -29.96875 8.082031 -29.6875 8.3125 -29.34375 L 17.796875 -14.75 L 27.5625 -29.34375 C 27.789062 -29.6875 28.097656 -29.96875 28.484375 -30.1875 C 28.878906 -30.40625 29.28125 -30.515625 29.6875 -30.515625 Z M 29.6875 -30.515625 "/></g></g></g><g fill="#000000" fill-opacity="1"><g transform="translate(225.045069, 327.603991)"><g><path d="M 20.5 -5 C 21.257812 -5 21.890625 -4.742188 22.390625 -4.234375 C 22.898438 -3.734375 23.15625 -3.148438 23.15625 -2.484375 C 23.15625 -1.753906 22.898438 -1.15625 22.390625 -0.6875 C 21.890625 -0.226562 21.257812 0 20.5 0 L 5.921875 0 C 5.160156 0 4.523438 -0.253906 4.015625 -0.765625 C 3.515625 -1.273438 3.265625 -1.90625 3.265625 -2.65625 L 3.265625 -27.8125 C 3.265625 -28.570312 3.515625 -29.203125 4.015625 -29.703125 C 4.523438 -30.210938 5.160156 -30.46875 5.921875 -30.46875 L 20.5 -30.46875 C 21.257812 -30.46875 21.890625 -30.226562 22.390625 -29.75 C 22.898438 -29.269531 23.15625 -28.65625 23.15625 -27.90625 C 23.15625 -27.175781 22.90625 -26.585938 22.40625 -26.140625 C 21.914062 -25.691406 21.28125 -25.46875 20.5 -25.46875 L 8.703125 -25.46875 L 8.703125 -18.0625 L 18.546875 -18.0625 C 19.296875 -18.0625 19.925781 -17.820312 20.4375 -17.34375 C 20.945312 -16.863281 21.203125 -16.25 21.203125 -15.5 C 21.203125 -14.769531 20.953125 -14.179688 20.453125 -13.734375 C 19.960938 -13.285156 19.328125 -13.0625 18.546875 -13.0625 L 8.703125 -13.0625 L 8.703125 -5 Z M 20.5 -5 "/></g></g></g></svg>