<svg xmlns="http://www.w3.org/2000/svg" xmlns:xlink="http://www.w3.org/1999/xlink" width="500" zoomAndPan="magnify" viewBox="0 0 375 374.999991" height="500" preserveAspectRatio="xMidYMid meet" version="1.0"><defs><g/><clipPath id="a817145e0f"><path d="M 69.796875 67.195312 L 305.296875 67.195312 L 305.296875 243.445312 L 69.796875 243.445312 Z M 69.796875 67.195312 " clip-rule="nonzero"/></clipPath></defs><g clip-path="url(#a817145e0f)"><path fill="#000000" d="M 305.289062 67.199219 L 305.289062 217.753906 C 305.289062 232.40625 294.542969 243.445312 281.109375 243.445312 L 101.792969 243.445312 C 79.613281 243.445312 69.800781 233.964844 69.800781 205.90625 L 69.800781 97.753906 L 100.855469 97.753906 L 100.855469 67.203125 L 305.28125 67.203125 Z M 100.863281 112.53125 L 84.617188 112.53125 L 84.617188 205.90625 C 84.617188 220.246094 88.054688 227.101562 92.429688 227.101562 C 97.738281 227.101562 100.863281 220.246094 100.863281 205.90625 Z M 290.480469 81.980469 L 115.671875 81.980469 L 115.671875 205.902344 C 115.671875 215.875 113.796875 223.046875 110.984375 228.65625 L 281.113281 228.65625 C 286.738281 228.65625 290.488281 222.113281 290.488281 217.746094 Z M 184.265625 143.261719 L 140.914062 143.261719 L 140.914062 137.648438 L 184.265625 137.648438 Z M 184.265625 161.652344 L 140.914062 161.652344 L 140.914062 156.042969 L 184.265625 156.042969 Z M 184.265625 179.421875 L 140.914062 179.421875 L 140.914062 173.808594 L 184.265625 173.808594 Z M 184.265625 196.566406 L 140.914062 196.566406 L 140.914062 190.957031 L 184.265625 190.957031 Z M 150.53125 108.660156 L 254.554688 108.660156 L 254.554688 119.054688 L 150.53125 119.054688 Z M 199.886719 137.648438 L 266.425781 137.648438 L 266.425781 190.667969 L 199.886719 190.667969 Z M 199.886719 137.648438 " fill-opacity="1" fill-rule="nonzero"/></g><g fill="#000000" fill-opacity="1"><g transform="translate(63.755861, 317.081463)"><g><path d="M 26.375 -30.46875 C 27.070312 -30.46875 27.640625 -30.234375 28.078125 -29.765625 C 28.515625 -29.304688 28.734375 -28.726562 28.734375 -28.03125 L 28.734375 -2.65625 C 28.734375 -1.90625 28.476562 -1.273438 27.96875 -0.765625 C 27.457031 -0.253906 26.828125 0 26.078125 0 C 25.671875 0 25.269531 -0.0625 24.875 -0.1875 C 24.488281 -0.320312 24.207031 -0.503906 24.03125 -0.734375 L 8.046875 -21.03125 L 8.046875 -2.4375 C 8.046875 -1.738281 7.820312 -1.15625 7.375 -0.6875 C 6.925781 -0.226562 6.335938 0 5.609375 0 C 4.921875 0 4.359375 -0.226562 3.921875 -0.6875 C 3.484375 -1.15625 3.265625 -1.738281 3.265625 -2.4375 L 3.265625 -27.8125 C 3.265625 -28.570312 3.515625 -29.203125 4.015625 -29.703125 C 4.523438 -30.210938 5.160156 -30.46875 5.921875 -30.46875 C 6.359375 -30.46875 6.785156 -30.378906 7.203125 -30.203125 C 7.617188 -30.035156 7.929688 -29.804688 8.140625 -29.515625 L 23.984375 -9.3125 L 23.984375 -28.03125 C 23.984375 -28.726562 24.207031 -29.304688 24.65625 -29.765625 C 25.101562 -30.234375 25.675781 -30.46875 26.375 -30.46875 Z M 26.375 -30.46875 "/></g></g></g><g fill="#000000" fill-opacity="1"><g transform="translate(95.754168, 317.081463)"><g><path d="M 31.296875 -15.234375 C 31.296875 -12.359375 30.65625 -9.722656 29.375 -7.328125 C 28.101562 -4.941406 26.34375 -3.050781 24.09375 -1.65625 C 21.84375 -0.257812 19.3125 0.4375 16.5 0.4375 C 13.6875 0.4375 11.15625 -0.257812 8.90625 -1.65625 C 6.65625 -3.050781 4.894531 -4.941406 3.625 -7.328125 C 2.363281 -9.722656 1.734375 -12.359375 1.734375 -15.234375 C 1.734375 -18.109375 2.363281 -20.742188 3.625 -23.140625 C 4.894531 -25.535156 6.65625 -27.425781 8.90625 -28.8125 C 11.15625 -30.207031 13.6875 -30.90625 16.5 -30.90625 C 19.3125 -30.90625 21.84375 -30.207031 24.09375 -28.8125 C 26.34375 -27.425781 28.101562 -25.535156 29.375 -23.140625 C 30.65625 -20.742188 31.296875 -18.109375 31.296875 -15.234375 Z M 25.640625 -15.234375 C 25.640625 -17.179688 25.25 -18.941406 24.46875 -20.515625 C 23.6875 -22.097656 22.597656 -23.351562 21.203125 -24.28125 C 19.804688 -25.21875 18.238281 -25.6875 16.5 -25.6875 C 14.726562 -25.6875 13.148438 -25.226562 11.765625 -24.3125 C 10.390625 -23.394531 9.316406 -22.140625 8.546875 -20.546875 C 7.785156 -18.953125 7.40625 -17.179688 7.40625 -15.234375 C 7.40625 -13.285156 7.785156 -11.515625 8.546875 -9.921875 C 9.316406 -8.328125 10.390625 -7.070312 11.765625 -6.15625 C 13.148438 -5.238281 14.726562 -4.78125 16.5 -4.78125 C 18.238281 -4.78125 19.804688 -5.242188 21.203125 -6.171875 C 22.597656 -7.109375 23.6875 -8.363281 24.46875 -9.9375 C 25.25 -11.519531 25.640625 -13.285156 25.640625 -15.234375 Z M 25.640625 -15.234375 "/></g></g></g><g fill="#000000" fill-opacity="1"><g transform="translate(128.797322, 317.081463)"><g><path d="M 25.515625 -30.5625 C 26.234375 -30.5625 26.859375 -30.3125 27.390625 -29.8125 C 27.929688 -29.320312 28.203125 -28.726562 28.203125 -28.03125 C 28.203125 -27.65625 28.117188 -27.265625 27.953125 -26.859375 L 17.1875 -1.703125 C 16.925781 -1.148438 16.5625 -0.726562 16.09375 -0.4375 C 15.632812 -0.144531 15.144531 0 14.625 0 C 14.132812 -0.03125 13.675781 -0.179688 13.25 -0.453125 C 12.832031 -0.734375 12.507812 -1.132812 12.28125 -1.65625 L 1.53125 -26.90625 C 1.382812 -27.195312 1.3125 -27.554688 1.3125 -27.984375 C 1.3125 -28.773438 1.597656 -29.410156 2.171875 -29.890625 C 2.753906 -30.367188 3.351562 -30.609375 3.96875 -30.609375 C 4.457031 -30.609375 4.914062 -30.460938 5.34375 -30.171875 C 5.78125 -29.878906 6.117188 -29.457031 6.359375 -28.90625 L 15.109375 -8.3125 L 23.109375 -28.90625 C 23.347656 -29.425781 23.679688 -29.832031 24.109375 -30.125 C 24.546875 -30.414062 25.015625 -30.5625 25.515625 -30.5625 Z M 25.515625 -30.5625 "/></g></g></g><g fill="#000000" fill-opacity="1"><g transform="translate(158.314127, 317.081463)"><g><path d="M 8.703125 -2.65625 C 8.703125 -1.90625 8.425781 -1.273438 7.875 -0.765625 C 7.320312 -0.253906 6.6875 0 5.96875 0 C 5.175781 0 4.523438 -0.253906 4.015625 -0.765625 C 3.515625 -1.273438 3.265625 -1.90625 3.265625 -2.65625 L 3.265625 -27.8125 C 3.265625 -28.570312 3.523438 -29.203125 4.046875 -29.703125 C 4.566406 -30.210938 5.234375 -30.46875 6.046875 -30.46875 C 6.773438 -30.46875 7.398438 -30.210938 7.921875 -29.703125 C 8.441406 -29.203125 8.703125 -28.570312 8.703125 -27.8125 Z M 8.703125 -2.65625 "/></g></g></g><g fill="#000000" fill-opacity="1"><g transform="translate(170.286283, 317.081463)"><g><path d="M 16.328125 -30.46875 C 19.054688 -30.46875 21.398438 -29.789062 23.359375 -28.4375 C 25.316406 -27.09375 26.8125 -25.265625 27.84375 -22.953125 C 28.875 -20.648438 29.390625 -18.078125 29.390625 -15.234375 C 29.390625 -12.390625 28.875 -9.8125 27.84375 -7.5 C 26.8125 -5.195312 25.316406 -3.367188 23.359375 -2.015625 C 21.398438 -0.671875 19.054688 0 16.328125 0 L 5.921875 0 C 5.160156 0 4.523438 -0.253906 4.015625 -0.765625 C 3.515625 -1.273438 3.265625 -1.90625 3.265625 -2.65625 L 3.265625 -27.8125 C 3.265625 -28.570312 3.515625 -29.203125 4.015625 -29.703125 C 4.523438 -30.210938 5.160156 -30.46875 5.921875 -30.46875 Z M 15.890625 -5 C 18.503906 -5 20.460938 -5.960938 21.765625 -7.890625 C 23.066406 -9.828125 23.71875 -12.273438 23.71875 -15.234375 C 23.71875 -18.191406 23.054688 -20.632812 21.734375 -22.5625 C 20.421875 -24.5 18.472656 -25.46875 15.890625 -25.46875 L 8.703125 -25.46875 L 8.703125 -5 Z M 15.890625 -5 "/></g></g></g><g fill="#000000" fill-opacity="1"><g transform="translate(201.41389, 317.081463)"><g><path d="M 27.15625 -3.390625 C 27.300781 -3.015625 27.375 -2.664062 27.375 -2.34375 C 27.375 -1.59375 27.128906 -0.976562 26.640625 -0.5 C 26.148438 -0.0195312 25.582031 0.21875 24.9375 0.21875 C 24.414062 0.21875 23.941406 0.0625 23.515625 -0.25 C 23.097656 -0.570312 22.773438 -1.007812 22.546875 -1.5625 L 20.28125 -6.828125 L 7.3125 -6.828125 L 5.046875 -1.53125 C 4.847656 -0.976562 4.535156 -0.546875 4.109375 -0.234375 C 3.691406 0.0664062 3.238281 0.21875 2.75 0.21875 C 1.988281 0.21875 1.410156 0.015625 1.015625 -0.390625 C 0.628906 -0.796875 0.4375 -1.347656 0.4375 -2.046875 C 0.4375 -2.304688 0.476562 -2.582031 0.5625 -2.875 L 11.40625 -28.90625 C 11.632812 -29.488281 11.976562 -29.9375 12.4375 -30.25 C 12.90625 -30.570312 13.429688 -30.703125 14.015625 -30.640625 C 14.535156 -30.640625 15.019531 -30.488281 15.46875 -30.1875 C 15.925781 -29.882812 16.253906 -29.457031 16.453125 -28.90625 Z M 9.453125 -11.84375 L 18.15625 -11.84375 L 13.75 -22.03125 Z M 9.453125 -11.84375 "/></g></g></g><g fill="#000000" fill-opacity="1"><g transform="translate(229.232828, 317.081463)"><g><path d="M 16.328125 -30.46875 C 19.054688 -30.46875 21.398438 -29.789062 23.359375 -28.4375 C 25.316406 -27.09375 26.8125 -25.265625 27.84375 -22.953125 C 28.875 -20.648438 29.390625 -18.078125 29.390625 -15.234375 C 29.390625 -12.390625 28.875 -9.8125 27.84375 -7.5 C 26.8125 -5.195312 25.316406 -3.367188 23.359375 -2.015625 C 21.398438 -0.671875 19.054688 0 16.328125 0 L 5.921875 0 C 5.160156 0 4.523438 -0.253906 4.015625 -0.765625 C 3.515625 -1.273438 3.265625 -1.90625 3.265625 -2.65625 L 3.265625 -27.8125 C 3.265625 -28.570312 3.515625 -29.203125 4.015625 -29.703125 C 4.523438 -30.210938 5.160156 -30.46875 5.921875 -30.46875 Z M 15.890625 -5 C 18.503906 -5 20.460938 -5.960938 21.765625 -7.890625 C 23.066406 -9.828125 23.71875 -12.273438 23.71875 -15.234375 C 23.71875 -18.191406 23.054688 -20.632812 21.734375 -22.5625 C 20.421875 -24.5 18.472656 -25.46875 15.890625 -25.46875 L 8.703125 -25.46875 L 8.703125 -5 Z M 15.890625 -5 "/></g></g></g><g fill="#000000" fill-opacity="1"><g transform="translate(260.360446, 317.081463)"><g><path d="M 20.5 -5 C 21.257812 -5 21.890625 -4.742188 22.390625 -4.234375 C 22.898438 -3.734375 23.15625 -3.148438 23.15625 -2.484375 C 23.15625 -1.753906 22.898438 -1.15625 22.390625 -0.6875 C 21.890625 -0.226562 21.257812 0 20.5 0 L 5.921875 0 C 5.160156 0 4.523438 -0.253906 4.015625 -0.765625 C 3.515625 -1.273438 3.265625 -1.90625 3.265625 -2.65625 L 3.265625 -27.8125 C 3.265625 -28.570312 3.515625 -29.203125 4.015625 -29.703125 C 4.523438 -30.210938 5.160156 -30.46875 5.921875 -30.46875 L 20.5 -30.46875 C 21.257812 -30.46875 21.890625 -30.226562 22.390625 -29.75 C 22.898438 -29.269531 23.15625 -28.65625 23.15625 -27.90625 C 23.15625 -27.175781 22.90625 -26.585938 22.40625 -26.140625 C 21.914062 -25.691406 21.28125 -25.46875 20.5 -25.46875 L 8.703125 -25.46875 L 8.703125 -18.0625 L 18.546875 -18.0625 C 19.296875 -18.0625 19.925781 -17.820312 20.4375 -17.34375 C 20.945312 -16.863281 21.203125 -16.25 21.203125 -15.5 C 21.203125 -14.769531 20.953125 -14.179688 20.453125 -13.734375 C 19.960938 -13.285156 19.328125 -13.0625 18.546875 -13.0625 L 8.703125 -13.0625 L 8.703125 -5 Z M 20.5 -5 "/></g></g></g><g fill="#000000" fill-opacity="1"><g transform="translate(285.262514, 317.081463)"><g><path d="M 13.0625 0.4375 C 10.96875 0.4375 9.109375 0.175781 7.484375 -0.34375 C 5.859375 -0.863281 4.335938 -1.75 2.921875 -3 C 2.128906 -3.695312 1.734375 -4.46875 1.734375 -5.3125 C 1.734375 -5.976562 1.976562 -6.5625 2.46875 -7.0625 C 2.96875 -7.570312 3.566406 -7.828125 4.265625 -7.828125 C 4.816406 -7.828125 5.3125 -7.65625 5.75 -7.3125 C 6.90625 -6.351562 8.035156 -5.65625 9.140625 -5.21875 C 10.242188 -4.789062 11.550781 -4.578125 13.0625 -4.578125 C 14.6875 -4.578125 16.082031 -4.9375 17.25 -5.65625 C 18.425781 -6.382812 19.015625 -7.285156 19.015625 -8.359375 C 19.015625 -9.660156 18.4375 -10.679688 17.28125 -11.421875 C 16.125 -12.160156 14.28125 -12.722656 11.75 -13.109375 C 5.394531 -14.035156 2.21875 -16.992188 2.21875 -21.984375 C 2.21875 -23.804688 2.695312 -25.394531 3.65625 -26.75 C 4.613281 -28.101562 5.921875 -29.132812 7.578125 -29.84375 C 9.234375 -30.550781 11.078125 -30.90625 13.109375 -30.90625 C 14.929688 -30.90625 16.644531 -30.628906 18.25 -30.078125 C 19.863281 -29.523438 21.207031 -28.800781 22.28125 -27.90625 C 23.125 -27.238281 23.546875 -26.46875 23.546875 -25.59375 C 23.546875 -24.925781 23.296875 -24.335938 22.796875 -23.828125 C 22.304688 -23.328125 21.726562 -23.078125 21.0625 -23.078125 C 20.632812 -23.078125 20.242188 -23.207031 19.890625 -23.46875 C 19.140625 -24.070312 18.085938 -24.628906 16.734375 -25.140625 C 15.390625 -25.648438 14.179688 -25.90625 13.109375 -25.90625 C 11.273438 -25.90625 9.859375 -25.5625 8.859375 -24.875 C 7.859375 -24.195312 7.359375 -23.304688 7.359375 -22.203125 C 7.359375 -20.953125 7.875 -20.003906 8.90625 -19.359375 C 9.9375 -18.722656 11.550781 -18.203125 13.75 -17.796875 C 16.25 -17.367188 18.242188 -16.8125 19.734375 -16.125 C 21.234375 -15.445312 22.359375 -14.519531 23.109375 -13.34375 C 23.867188 -12.164062 24.25 -10.601562 24.25 -8.65625 C 24.25 -6.832031 23.734375 -5.226562 22.703125 -3.84375 C 21.671875 -2.46875 20.296875 -1.410156 18.578125 -0.671875 C 16.867188 0.0664062 15.03125 0.4375 13.0625 0.4375 Z M 13.0625 0.4375 "/></g></g></g></svg>