<svg xmlns="http://www.w3.org/2000/svg" xmlns:xlink="http://www.w3.org/1999/xlink" width="500" zoomAndPan="magnify" viewBox="0 0 375 374.999991" height="500" preserveAspectRatio="xMidYMid meet" version="1.0"><defs><g/><clipPath id="48089c30f8"><path d="M 70.777344 37.5 L 304.027344 37.5 L 304.027344 270.75 L 70.777344 270.75 Z M 70.777344 37.5 " clip-rule="nonzero"/></clipPath></defs><g clip-path="url(#48089c30f8)"><path fill="#000000" d="M 187.402344 37.5 C 123.09375 37.5 70.777344 89.816406 70.777344 154.125 C 70.777344 218.433594 123.09375 270.75 187.402344 270.75 C 251.710938 270.75 304.027344 218.433594 304.027344 154.125 C 304.027344 89.816406 251.710938 37.5 187.402344 37.5 Z M 261.191406 223.09375 C 245.980469 197.105469 218.089844 180.824219 187.398438 180.824219 C 156.710938 180.824219 128.824219 197.105469 113.613281 223.09375 C 96.707031 205.019531 86.328125 180.769531 86.328125 154.125 C 86.328125 98.390625 131.667969 53.050781 187.402344 53.050781 C 243.136719 53.050781 288.476562 98.390625 288.476562 154.125 C 288.476562 180.769531 278.097656 205.019531 261.191406 223.09375 Z M 261.191406 223.09375 " fill-opacity="1" fill-rule="nonzero"/></g><path fill="#000000" d="M 187.402344 71.976562 C 161.1875 71.976562 139.859375 93.304688 139.859375 119.519531 C 139.859375 145.734375 161.1875 167.0625 187.402344 167.0625 C 213.617188 167.0625 234.945312 145.734375 234.945312 119.519531 C 234.945312 93.304688 213.617188 71.976562 187.402344 71.976562 Z M 187.402344 71.976562 " fill-opacity="1" fill-rule="nonzero"/><g fill="#000000" fill-opacity="1"><g transform="translate(22.629258, 329.23451)"><g><path d="M 12.015625 -23.109375 C 13.140625 -23.109375 14.207031 -22.769531 15.21875 -22.09375 C 16.226562 -21.425781 17.039062 -20.523438 17.65625 -19.390625 C 18.28125 -18.265625 18.59375 -17.03125 18.59375 -15.6875 C 18.59375 -14.363281 18.28125 -13.128906 17.65625 -11.984375 C 17.039062 -10.835938 16.226562 -9.925781 15.21875 -9.25 C 14.207031 -8.582031 13.140625 -8.25 12.015625 -8.25 L 6.265625 -8.25 L 6.265625 -2.015625 C 6.265625 -1.421875 6.085938 -0.9375 5.734375 -0.5625 C 5.390625 -0.1875 4.929688 0 4.359375 0 C 3.804688 0 3.351562 -0.191406 3 -0.578125 C 2.644531 -0.960938 2.46875 -1.441406 2.46875 -2.015625 L 2.46875 -21.09375 C 2.46875 -21.664062 2.660156 -22.144531 3.046875 -22.53125 C 3.429688 -22.914062 3.910156 -23.109375 4.484375 -23.109375 Z M 12.015625 -12.015625 C 12.429688 -12.015625 12.84375 -12.191406 13.25 -12.546875 C 13.65625 -12.898438 13.984375 -13.359375 14.234375 -13.921875 C 14.492188 -14.484375 14.625 -15.070312 14.625 -15.6875 C 14.625 -16.300781 14.492188 -16.890625 14.234375 -17.453125 C 13.984375 -18.015625 13.65625 -18.460938 13.25 -18.796875 C 12.84375 -19.140625 12.429688 -19.3125 12.015625 -19.3125 L 6.265625 -19.3125 L 6.265625 -12.015625 Z M 12.015625 -12.015625 "/></g></g></g><g fill="#000000" fill-opacity="1"><g transform="translate(42.535328, 329.23451)"><g><path d="M 20.609375 -2.578125 C 20.710938 -2.285156 20.765625 -2.019531 20.765625 -1.78125 C 20.765625 -1.207031 20.578125 -0.738281 20.203125 -0.375 C 19.828125 -0.0078125 19.398438 0.171875 18.921875 0.171875 C 18.523438 0.171875 18.164062 0.0507812 17.84375 -0.1875 C 17.519531 -0.4375 17.273438 -0.769531 17.109375 -1.1875 L 15.390625 -5.1875 L 5.546875 -5.1875 L 3.828125 -1.15625 C 3.671875 -0.738281 3.429688 -0.410156 3.109375 -0.171875 C 2.796875 0.0546875 2.453125 0.171875 2.078125 0.171875 C 1.503906 0.171875 1.066406 0.015625 0.765625 -0.296875 C 0.472656 -0.609375 0.328125 -1.023438 0.328125 -1.546875 C 0.328125 -1.742188 0.359375 -1.953125 0.421875 -2.171875 L 8.65625 -21.921875 C 8.832031 -22.359375 9.09375 -22.695312 9.4375 -22.9375 C 9.789062 -23.1875 10.1875 -23.289062 10.625 -23.25 C 11.019531 -23.25 11.390625 -23.128906 11.734375 -22.890625 C 12.078125 -22.660156 12.328125 -22.335938 12.484375 -21.921875 Z M 7.171875 -8.984375 L 13.765625 -8.984375 L 10.4375 -16.703125 Z M 10.671875 -24.359375 C 10.242188 -24.359375 9.90625 -24.46875 9.65625 -24.6875 C 9.40625 -24.914062 9.28125 -25.203125 9.28125 -25.546875 C 9.28125 -25.859375 9.429688 -26.160156 9.734375 -26.453125 L 12.578125 -28.953125 C 13.148438 -29.441406 13.691406 -29.6875 14.203125 -29.6875 C 14.617188 -29.6875 15.015625 -29.53125 15.390625 -29.21875 C 15.765625 -28.90625 15.953125 -28.519531 15.953125 -28.0625 C 15.953125 -27.726562 15.84375 -27.398438 15.625 -27.078125 C 15.414062 -26.765625 15.113281 -26.507812 14.71875 -26.3125 L 11.421875 -24.5625 C 11.203125 -24.425781 10.953125 -24.359375 10.671875 -24.359375 Z M 10.671875 -24.359375 "/></g></g></g><g fill="#000000" fill-opacity="1"><g transform="translate(63.62982, 329.23451)"><g><path d="M 19.515625 -12.484375 C 20.085938 -12.484375 20.5625 -12.289062 20.9375 -11.90625 C 21.3125 -11.519531 21.5 -11.039062 21.5 -10.46875 L 21.5 -3.46875 C 21.5 -2.695312 21.15625 -2.101562 20.46875 -1.6875 C 18.3125 -0.34375 15.945312 0.328125 13.375 0.328125 C 11.195312 0.328125 9.179688 -0.203125 7.328125 -1.265625 C 5.484375 -2.335938 4.019531 -3.78125 2.9375 -5.59375 C 1.863281 -7.40625 1.328125 -9.394531 1.328125 -11.5625 C 1.328125 -13.71875 1.863281 -15.703125 2.9375 -17.515625 C 4.019531 -19.328125 5.484375 -20.765625 7.328125 -21.828125 C 9.179688 -22.898438 11.195312 -23.4375 13.375 -23.4375 C 15.550781 -23.4375 17.441406 -23 19.046875 -22.125 C 19.378906 -21.945312 19.628906 -21.710938 19.796875 -21.421875 C 19.960938 -21.140625 20.046875 -20.832031 20.046875 -20.5 C 20.046875 -19.945312 19.863281 -19.46875 19.5 -19.0625 C 19.132812 -18.65625 18.6875 -18.453125 18.15625 -18.453125 C 17.820312 -18.453125 17.457031 -18.539062 17.0625 -18.71875 C 15.875 -19.226562 14.644531 -19.484375 13.375 -19.484375 C 11.96875 -19.484375 10.664062 -19.125 9.46875 -18.40625 C 8.28125 -17.6875 7.335938 -16.722656 6.640625 -15.515625 C 5.953125 -14.304688 5.609375 -12.988281 5.609375 -11.5625 C 5.609375 -10.125 5.953125 -8.800781 6.640625 -7.59375 C 7.335938 -6.382812 8.28125 -5.421875 9.46875 -4.703125 C 10.664062 -3.984375 11.96875 -3.625 13.375 -3.625 C 13.988281 -3.625 14.644531 -3.679688 15.34375 -3.796875 C 16.050781 -3.910156 16.671875 -4.050781 17.203125 -4.21875 L 17.203125 -8.515625 L 14.09375 -8.515625 C 13.519531 -8.515625 13.039062 -8.703125 12.65625 -9.078125 C 12.269531 -9.453125 12.078125 -9.925781 12.078125 -10.5 C 12.078125 -11.070312 12.269531 -11.546875 12.65625 -11.921875 C 13.039062 -12.296875 13.519531 -12.484375 14.09375 -12.484375 Z M 19.515625 -12.484375 "/></g></g></g><g fill="#000000" fill-opacity="1"><g transform="translate(86.605985, 329.23451)"><g><path d="M 6.609375 -2.015625 C 6.609375 -1.441406 6.394531 -0.960938 5.96875 -0.578125 C 5.550781 -0.191406 5.066406 0 4.515625 0 C 3.921875 0 3.429688 -0.191406 3.046875 -0.578125 C 2.660156 -0.960938 2.46875 -1.441406 2.46875 -2.015625 L 2.46875 -21.09375 C 2.46875 -21.664062 2.664062 -22.144531 3.0625 -22.53125 C 3.46875 -22.914062 3.976562 -23.109375 4.59375 -23.109375 C 5.144531 -23.109375 5.617188 -22.914062 6.015625 -22.53125 C 6.410156 -22.144531 6.609375 -21.664062 6.609375 -21.09375 Z M 6.609375 -2.015625 "/></g></g></g><g fill="#000000" fill-opacity="1"><g transform="translate(95.684216, 329.23451)"><g><path d="M 20 -23.109375 C 20.53125 -23.109375 20.960938 -22.929688 21.296875 -22.578125 C 21.628906 -22.222656 21.796875 -21.785156 21.796875 -21.265625 L 21.796875 -2.015625 C 21.796875 -1.441406 21.601562 -0.960938 21.21875 -0.578125 C 20.832031 -0.191406 20.351562 0 19.78125 0 C 19.46875 0 19.160156 -0.046875 18.859375 -0.140625 C 18.566406 -0.242188 18.351562 -0.382812 18.21875 -0.5625 L 6.109375 -15.953125 L 6.109375 -1.84375 C 6.109375 -1.320312 5.9375 -0.882812 5.59375 -0.53125 C 5.25 -0.175781 4.804688 0 4.265625 0 C 3.734375 0 3.300781 -0.175781 2.96875 -0.53125 C 2.632812 -0.882812 2.46875 -1.320312 2.46875 -1.84375 L 2.46875 -21.09375 C 2.46875 -21.664062 2.660156 -22.144531 3.046875 -22.53125 C 3.429688 -22.914062 3.910156 -23.109375 4.484375 -23.109375 C 4.816406 -23.109375 5.140625 -23.039062 5.453125 -22.90625 C 5.773438 -22.78125 6.015625 -22.609375 6.171875 -22.390625 L 18.1875 -7.0625 L 18.1875 -21.265625 C 18.1875 -21.785156 18.359375 -22.222656 18.703125 -22.578125 C 19.046875 -22.929688 19.476562 -23.109375 20 -23.109375 Z M 20 -23.109375 "/></g></g></g><g fill="#000000" fill-opacity="1"><g transform="translate(119.94784, 329.23451)"><g><path d="M 20.609375 -2.578125 C 20.710938 -2.285156 20.765625 -2.019531 20.765625 -1.78125 C 20.765625 -1.207031 20.578125 -0.738281 20.203125 -0.375 C 19.828125 -0.0078125 19.398438 0.171875 18.921875 0.171875 C 18.523438 0.171875 18.164062 0.0507812 17.84375 -0.1875 C 17.519531 -0.4375 17.273438 -0.769531 17.109375 -1.1875 L 15.390625 -5.1875 L 5.546875 -5.1875 L 3.828125 -1.15625 C 3.671875 -0.738281 3.429688 -0.410156 3.109375 -0.171875 C 2.796875 0.0546875 2.453125 0.171875 2.078125 0.171875 C 1.503906 0.171875 1.066406 0.015625 0.765625 -0.296875 C 0.472656 -0.609375 0.328125 -1.023438 0.328125 -1.546875 C 0.328125 -1.742188 0.359375 -1.953125 0.421875 -2.171875 L 8.65625 -21.921875 C 8.832031 -22.359375 9.09375 -22.695312 9.4375 -22.9375 C 9.789062 -23.1875 10.1875 -23.289062 10.625 -23.25 C 11.019531 -23.25 11.390625 -23.128906 11.734375 -22.890625 C 12.078125 -22.660156 12.328125 -22.335938 12.484375 -21.921875 Z M 7.171875 -8.984375 L 13.765625 -8.984375 L 10.4375 -16.703125 Z M 7.171875 -8.984375 "/></g></g></g><g fill="#000000" fill-opacity="1"><g transform="translate(141.042333, 329.23451)"><g/></g></g><g fill="#000000" fill-opacity="1"><g transform="translate(150.285622, 329.23451)"><g><path d="M 12.375 -23.109375 C 14.445312 -23.109375 16.222656 -22.597656 17.703125 -21.578125 C 19.191406 -20.554688 20.328125 -19.171875 21.109375 -17.421875 C 21.890625 -15.671875 22.28125 -13.71875 22.28125 -11.5625 C 22.28125 -9.394531 21.890625 -7.4375 21.109375 -5.6875 C 20.328125 -3.945312 19.191406 -2.5625 17.703125 -1.53125 C 16.222656 -0.507812 14.445312 0 12.375 0 L 4.484375 0 C 3.910156 0 3.429688 -0.191406 3.046875 -0.578125 C 2.660156 -0.960938 2.46875 -1.441406 2.46875 -2.015625 L 2.46875 -21.09375 C 2.46875 -21.664062 2.660156 -22.144531 3.046875 -22.53125 C 3.429688 -22.914062 3.910156 -23.109375 4.484375 -23.109375 Z M 12.046875 -3.796875 C 14.023438 -3.796875 15.507812 -4.523438 16.5 -5.984375 C 17.5 -7.453125 18 -9.3125 18 -11.5625 C 18 -13.800781 17.492188 -15.648438 16.484375 -17.109375 C 15.484375 -18.578125 14.003906 -19.3125 12.046875 -19.3125 L 6.609375 -19.3125 L 6.609375 -3.796875 Z M 12.046875 -3.796875 "/></g></g></g><g fill="#000000" fill-opacity="1"><g transform="translate(173.889014, 329.23451)"><g><path d="M 23.734375 -11.5625 C 23.734375 -9.375 23.25 -7.375 22.28125 -5.5625 C 21.3125 -3.75 19.972656 -2.3125 18.265625 -1.25 C 16.566406 -0.195312 14.648438 0.328125 12.515625 0.328125 C 10.378906 0.328125 8.457031 -0.195312 6.75 -1.25 C 5.039062 -2.3125 3.707031 -3.75 2.75 -5.5625 C 1.800781 -7.375 1.328125 -9.375 1.328125 -11.5625 C 1.328125 -13.738281 1.800781 -15.734375 2.75 -17.546875 C 3.707031 -19.359375 5.039062 -20.789062 6.75 -21.84375 C 8.457031 -22.90625 10.378906 -23.4375 12.515625 -23.4375 C 14.648438 -23.4375 16.566406 -22.90625 18.265625 -21.84375 C 19.972656 -20.789062 21.3125 -19.359375 22.28125 -17.546875 C 23.25 -15.734375 23.734375 -13.738281 23.734375 -11.5625 Z M 19.453125 -11.5625 C 19.453125 -13.03125 19.148438 -14.363281 18.546875 -15.5625 C 17.953125 -16.757812 17.128906 -17.710938 16.078125 -18.421875 C 15.023438 -19.128906 13.835938 -19.484375 12.515625 -19.484375 C 11.171875 -19.484375 9.972656 -19.132812 8.921875 -18.4375 C 7.878906 -17.75 7.066406 -16.796875 6.484375 -15.578125 C 5.898438 -14.367188 5.609375 -13.03125 5.609375 -11.5625 C 5.609375 -10.082031 5.898438 -8.738281 6.484375 -7.53125 C 7.066406 -6.320312 7.878906 -5.367188 8.921875 -4.671875 C 9.972656 -3.972656 11.171875 -3.625 12.515625 -3.625 C 13.835938 -3.625 15.023438 -3.976562 16.078125 -4.6875 C 17.128906 -5.394531 17.953125 -6.347656 18.546875 -7.546875 C 19.148438 -8.742188 19.453125 -10.082031 19.453125 -11.5625 Z M 19.453125 -11.5625 "/></g></g></g><g fill="#000000" fill-opacity="1"><g transform="translate(198.944925, 329.23451)"><g/></g></g><g fill="#000000" fill-opacity="1"><g transform="translate(208.188214, 329.23451)"><g><path d="M 18.890625 -23.140625 C 19.460938 -23.140625 19.921875 -22.953125 20.265625 -22.578125 C 20.617188 -22.203125 20.796875 -21.71875 20.796875 -21.125 L 20.796875 -9.171875 C 20.796875 -7.347656 20.410156 -5.734375 19.640625 -4.328125 C 18.867188 -2.921875 17.789062 -1.816406 16.40625 -1.015625 C 15.019531 -0.222656 13.4375 0.171875 11.65625 0.171875 C 9.875 0.171875 8.28125 -0.222656 6.875 -1.015625 C 5.476562 -1.816406 4.394531 -2.921875 3.625 -4.328125 C 2.851562 -5.734375 2.46875 -7.347656 2.46875 -9.171875 L 2.46875 -21.125 C 2.46875 -21.695312 2.664062 -22.175781 3.0625 -22.5625 C 3.46875 -22.945312 3.976562 -23.140625 4.59375 -23.140625 C 5.113281 -23.140625 5.570312 -22.945312 5.96875 -22.5625 C 6.363281 -22.175781 6.5625 -21.695312 6.5625 -21.125 L 6.5625 -9.171875 C 6.5625 -8.117188 6.789062 -7.179688 7.25 -6.359375 C 7.71875 -5.535156 8.34375 -4.898438 9.125 -4.453125 C 9.90625 -4.015625 10.75 -3.796875 11.65625 -3.796875 C 12.601562 -3.796875 13.488281 -4.015625 14.3125 -4.453125 C 15.132812 -4.898438 15.789062 -5.535156 16.28125 -6.359375 C 16.78125 -7.179688 17.03125 -8.117188 17.03125 -9.171875 L 17.03125 -21.125 C 17.03125 -21.71875 17.195312 -22.203125 17.53125 -22.578125 C 17.863281 -22.953125 18.316406 -23.140625 18.890625 -23.140625 Z M 18.890625 -23.140625 "/></g></g></g><g fill="#000000" fill-opacity="1"><g transform="translate(231.461489, 329.23451)"><g><path d="M 9.90625 0.328125 C 8.320312 0.328125 6.910156 0.128906 5.671875 -0.265625 C 4.441406 -0.660156 3.289062 -1.332031 2.21875 -2.28125 C 1.625 -2.8125 1.328125 -3.394531 1.328125 -4.03125 C 1.328125 -4.53125 1.507812 -4.972656 1.875 -5.359375 C 2.25 -5.742188 2.703125 -5.9375 3.234375 -5.9375 C 3.648438 -5.9375 4.023438 -5.804688 4.359375 -5.546875 C 5.234375 -4.816406 6.085938 -4.285156 6.921875 -3.953125 C 7.765625 -3.628906 8.757812 -3.46875 9.90625 -3.46875 C 11.132812 -3.46875 12.191406 -3.742188 13.078125 -4.296875 C 13.972656 -4.847656 14.421875 -5.53125 14.421875 -6.34375 C 14.421875 -7.332031 13.976562 -8.109375 13.09375 -8.671875 C 12.21875 -9.234375 10.828125 -9.65625 8.921875 -9.9375 C 4.097656 -10.644531 1.6875 -12.890625 1.6875 -16.671875 C 1.6875 -18.054688 2.046875 -19.257812 2.765625 -20.28125 C 3.492188 -21.3125 4.484375 -22.09375 5.734375 -22.625 C 6.992188 -23.164062 8.394531 -23.4375 9.9375 -23.4375 C 11.320312 -23.4375 12.625 -23.226562 13.84375 -22.8125 C 15.070312 -22.394531 16.09375 -21.84375 16.90625 -21.15625 C 17.539062 -20.65625 17.859375 -20.070312 17.859375 -19.40625 C 17.859375 -18.90625 17.671875 -18.460938 17.296875 -18.078125 C 16.921875 -17.691406 16.484375 -17.5 15.984375 -17.5 C 15.648438 -17.5 15.351562 -17.597656 15.09375 -17.796875 C 14.519531 -18.253906 13.71875 -18.675781 12.6875 -19.0625 C 11.664062 -19.445312 10.75 -19.640625 9.9375 -19.640625 C 8.550781 -19.640625 7.476562 -19.378906 6.71875 -18.859375 C 5.957031 -18.347656 5.578125 -17.675781 5.578125 -16.84375 C 5.578125 -15.894531 5.96875 -15.175781 6.75 -14.6875 C 7.53125 -14.207031 8.757812 -13.8125 10.4375 -13.5 C 12.320312 -13.175781 13.832031 -12.753906 14.96875 -12.234375 C 16.101562 -11.710938 16.957031 -11.003906 17.53125 -10.109375 C 18.101562 -9.222656 18.390625 -8.039062 18.390625 -6.5625 C 18.390625 -5.175781 18 -3.960938 17.21875 -2.921875 C 16.4375 -1.878906 15.394531 -1.078125 14.09375 -0.515625 C 12.800781 0.046875 11.40625 0.328125 9.90625 0.328125 Z M 9.90625 0.328125 "/></g></g></g><g fill="#000000" fill-opacity="1"><g transform="translate(251.169496, 329.23451)"><g><path d="M 18.890625 -23.140625 C 19.460938 -23.140625 19.921875 -22.953125 20.265625 -22.578125 C 20.617188 -22.203125 20.796875 -21.71875 20.796875 -21.125 L 20.796875 -9.171875 C 20.796875 -7.347656 20.410156 -5.734375 19.640625 -4.328125 C 18.867188 -2.921875 17.789062 -1.816406 16.40625 -1.015625 C 15.019531 -0.222656 13.4375 0.171875 11.65625 0.171875 C 9.875 0.171875 8.28125 -0.222656 6.875 -1.015625 C 5.476562 -1.816406 4.394531 -2.921875 3.625 -4.328125 C 2.851562 -5.734375 2.46875 -7.347656 2.46875 -9.171875 L 2.46875 -21.125 C 2.46875 -21.695312 2.664062 -22.175781 3.0625 -22.5625 C 3.46875 -22.945312 3.976562 -23.140625 4.59375 -23.140625 C 5.113281 -23.140625 5.570312 -22.945312 5.96875 -22.5625 C 6.363281 -22.175781 6.5625 -21.695312 6.5625 -21.125 L 6.5625 -9.171875 C 6.5625 -8.117188 6.789062 -7.179688 7.25 -6.359375 C 7.71875 -5.535156 8.34375 -4.898438 9.125 -4.453125 C 9.90625 -4.015625 10.75 -3.796875 11.65625 -3.796875 C 12.601562 -3.796875 13.488281 -4.015625 14.3125 -4.453125 C 15.132812 -4.898438 15.789062 -5.535156 16.28125 -6.359375 C 16.78125 -7.179688 17.03125 -8.117188 17.03125 -9.171875 L 17.03125 -21.125 C 17.03125 -21.71875 17.195312 -22.203125 17.53125 -22.578125 C 17.863281 -22.953125 18.316406 -23.140625 18.890625 -23.140625 Z M 18.890625 -23.140625 "/></g></g></g><g fill="#000000" fill-opacity="1"><g transform="translate(274.442772, 329.23451)"><g><path d="M 20.609375 -2.578125 C 20.710938 -2.285156 20.765625 -2.019531 20.765625 -1.78125 C 20.765625 -1.207031 20.578125 -0.738281 20.203125 -0.375 C 19.828125 -0.0078125 19.398438 0.171875 18.921875 0.171875 C 18.523438 0.171875 18.164062 0.0507812 17.84375 -0.1875 C 17.519531 -0.4375 17.273438 -0.769531 17.109375 -1.1875 L 15.390625 -5.1875 L 5.546875 -5.1875 L 3.828125 -1.15625 C 3.671875 -0.738281 3.429688 -0.410156 3.109375 -0.171875 C 2.796875 0.0546875 2.453125 0.171875 2.078125 0.171875 C 1.503906 0.171875 1.066406 0.015625 0.765625 -0.296875 C 0.472656 -0.609375 0.328125 -1.023438 0.328125 -1.546875 C 0.328125 -1.742188 0.359375 -1.953125 0.421875 -2.171875 L 8.65625 -21.921875 C 8.832031 -22.359375 9.09375 -22.695312 9.4375 -22.9375 C 9.789062 -23.1875 10.1875 -23.289062 10.625 -23.25 C 11.019531 -23.25 11.390625 -23.128906 11.734375 -22.890625 C 12.078125 -22.660156 12.328125 -22.335938 12.484375 -21.921875 Z M 7.171875 -8.984375 L 13.765625 -8.984375 L 10.4375 -16.703125 Z M 10.671875 -24.359375 C 10.242188 -24.359375 9.90625 -24.46875 9.65625 -24.6875 C 9.40625 -24.914062 9.28125 -25.203125 9.28125 -25.546875 C 9.28125 -25.859375 9.429688 -26.160156 9.734375 -26.453125 L 12.578125 -28.953125 C 13.148438 -29.441406 13.691406 -29.6875 14.203125 -29.6875 C 14.617188 -29.6875 15.015625 -29.53125 15.390625 -29.21875 C 15.765625 -28.90625 15.953125 -28.519531 15.953125 -28.0625 C 15.953125 -27.726562 15.84375 -27.398438 15.625 -27.078125 C 15.414062 -26.765625 15.113281 -26.507812 14.71875 -26.3125 L 11.421875 -24.5625 C 11.203125 -24.425781 10.953125 -24.359375 10.671875 -24.359375 Z M 10.671875 -24.359375 "/></g></g></g><g fill="#000000" fill-opacity="1"><g transform="translate(295.537275, 329.23451)"><g><path d="M 20.609375 -3.234375 C 20.890625 -3.054688 21.113281 -2.820312 21.28125 -2.53125 C 21.445312 -2.25 21.53125 -1.957031 21.53125 -1.65625 C 21.53125 -1.257812 21.394531 -0.894531 21.125 -0.5625 C 20.800781 -0.164062 20.296875 0.03125 19.609375 0.03125 C 19.078125 0.03125 18.59375 -0.0859375 18.15625 -0.328125 C 16.570312 -1.234375 15.78125 -3.070312 15.78125 -5.84375 C 15.78125 -6.632812 15.519531 -7.257812 15 -7.71875 C 14.488281 -8.1875 13.75 -8.421875 12.78125 -8.421875 L 6.609375 -8.421875 L 6.609375 -2.015625 C 6.609375 -1.421875 6.445312 -0.9375 6.125 -0.5625 C 5.800781 -0.1875 5.378906 0 4.859375 0 C 4.210938 0 3.648438 -0.191406 3.171875 -0.578125 C 2.703125 -0.960938 2.46875 -1.441406 2.46875 -2.015625 L 2.46875 -21.09375 C 2.46875 -21.664062 2.660156 -22.144531 3.046875 -22.53125 C 3.429688 -22.914062 3.910156 -23.109375 4.484375 -23.109375 L 14 -23.109375 C 15.144531 -23.109375 16.222656 -22.800781 17.234375 -22.1875 C 18.242188 -21.570312 19.050781 -20.722656 19.65625 -19.640625 C 20.257812 -18.566406 20.5625 -17.359375 20.5625 -16.015625 C 20.5625 -14.910156 20.265625 -13.832031 19.671875 -12.78125 C 19.078125 -11.738281 18.304688 -10.910156 17.359375 -10.296875 C 18.753906 -9.328125 19.515625 -8.03125 19.640625 -6.40625 C 19.710938 -6.050781 19.75 -5.707031 19.75 -5.375 C 19.832031 -4.695312 19.914062 -4.207031 20 -3.90625 C 20.09375 -3.613281 20.296875 -3.390625 20.609375 -3.234375 Z M 13.828125 -11.8125 C 14.222656 -11.8125 14.609375 -12 14.984375 -12.375 C 15.359375 -12.75 15.664062 -13.25 15.90625 -13.875 C 16.15625 -14.507812 16.28125 -15.1875 16.28125 -15.90625 C 16.28125 -16.53125 16.15625 -17.097656 15.90625 -17.609375 C 15.664062 -18.128906 15.359375 -18.539062 14.984375 -18.84375 C 14.609375 -19.15625 14.222656 -19.3125 13.828125 -19.3125 L 6.609375 -19.3125 L 6.609375 -11.8125 Z M 13.828125 -11.8125 "/></g></g></g><g fill="#000000" fill-opacity="1"><g transform="translate(318.216351, 329.23451)"><g><path d="M 6.609375 -2.015625 C 6.609375 -1.441406 6.394531 -0.960938 5.96875 -0.578125 C 5.550781 -0.191406 5.066406 0 4.515625 0 C 3.921875 0 3.429688 -0.191406 3.046875 -0.578125 C 2.660156 -0.960938 2.46875 -1.441406 2.46875 -2.015625 L 2.46875 -21.09375 C 2.46875 -21.664062 2.664062 -22.144531 3.0625 -22.53125 C 3.46875 -22.914062 3.976562 -23.109375 4.59375 -23.109375 C 5.144531 -23.109375 5.617188 -22.914062 6.015625 -22.53125 C 6.410156 -22.144531 6.609375 -21.664062 6.609375 -21.09375 Z M 6.609375 -2.015625 "/></g></g></g><g fill="#000000" fill-opacity="1"><g transform="translate(327.294583, 329.23451)"><g><path d="M 23.734375 -11.5625 C 23.734375 -9.375 23.25 -7.375 22.28125 -5.5625 C 21.3125 -3.75 19.972656 -2.3125 18.265625 -1.25 C 16.566406 -0.195312 14.648438 0.328125 12.515625 0.328125 C 10.378906 0.328125 8.457031 -0.195312 6.75 -1.25 C 5.039062 -2.3125 3.707031 -3.75 2.75 -5.5625 C 1.800781 -7.375 1.328125 -9.375 1.328125 -11.5625 C 1.328125 -13.738281 1.800781 -15.734375 2.75 -17.546875 C 3.707031 -19.359375 5.039062 -20.789062 6.75 -21.84375 C 8.457031 -22.90625 10.378906 -23.4375 12.515625 -23.4375 C 14.648438 -23.4375 16.566406 -22.90625 18.265625 -21.84375 C 19.972656 -20.789062 21.3125 -19.359375 22.28125 -17.546875 C 23.25 -15.734375 23.734375 -13.738281 23.734375 -11.5625 Z M 19.453125 -11.5625 C 19.453125 -13.03125 19.148438 -14.363281 18.546875 -15.5625 C 17.953125 -16.757812 17.128906 -17.710938 16.078125 -18.421875 C 15.023438 -19.128906 13.835938 -19.484375 12.515625 -19.484375 C 11.171875 -19.484375 9.972656 -19.132812 8.921875 -18.4375 C 7.878906 -17.75 7.066406 -16.796875 6.484375 -15.578125 C 5.898438 -14.367188 5.609375 -13.03125 5.609375 -11.5625 C 5.609375 -10.082031 5.898438 -8.738281 6.484375 -7.53125 C 7.066406 -6.320312 7.878906 -5.367188 8.921875 -4.671875 C 9.972656 -3.972656 11.171875 -3.625 12.515625 -3.625 C 13.835938 -3.625 15.023438 -3.976562 16.078125 -4.6875 C 17.128906 -5.394531 17.953125 -6.347656 18.546875 -7.546875 C 19.148438 -8.742188 19.453125 -10.082031 19.453125 -11.5625 Z M 19.453125 -11.5625 "/></g></g></g></svg>