<svg xmlns="http://www.w3.org/2000/svg" xmlns:xlink="http://www.w3.org/1999/xlink" width="500" zoomAndPan="magnify" viewBox="0 0 375 374.999991" height="500" preserveAspectRatio="xMidYMid meet" version="1.0"><defs><g/><clipPath id="4e7a98f69d"><path d="M 58.109375 26.238281 L 316.859375 26.238281 L 316.859375 284.988281 L 58.109375 284.988281 Z M 58.109375 26.238281 " clip-rule="nonzero"/></clipPath></defs><g clip-path="url(#4e7a98f69d)"><path fill="#000000" d="M 179.605469 26.796875 C 176.917969 26.796875 174.597656 28.722656 174.09375 31.394531 L 171.117188 47.671875 C 168.320312 48.546875 165.605469 49.640625 162.980469 50.972656 L 149.613281 41.324219 C 147.402344 39.726562 144.363281 39.945312 142.414062 41.894531 L 130.449219 53.6875 C 128.523438 55.589844 128.238281 58.609375 129.792969 60.839844 L 139.175781 74.425781 C 137.820312 77.050781 136.683594 79.765625 135.765625 82.542969 L 119.488281 85.167969 C 116.796875 85.605469 114.804688 87.925781 114.785156 90.660156 L 114.675781 107.460938 C 114.652344 110.175781 116.601562 112.515625 119.269531 112.996094 L 135.589844 115.972656 C 136.464844 118.75 137.582031 121.441406 138.894531 124.042969 L 129.203125 137.476562 C 127.605469 139.6875 127.824219 142.75 129.75 144.695312 L 141.5625 156.640625 C 143.464844 158.566406 146.484375 158.851562 148.714844 157.296875 L 162.457031 147.824219 C 165.082031 149.160156 167.769531 150.277344 170.527344 151.171875 L 173.304688 167.644531 C 173.765625 170.335938 176.085938 172.304688 178.796875 172.328125 L 195.601562 172.414062 L 195.621094 172.414062 C 198.355469 172.414062 200.695312 170.445312 201.15625 167.753906 L 203.933594 151.304688 C 206.667969 150.429688 209.339844 149.335938 211.898438 148.023438 L 225.570312 157.734375 C 227.78125 159.3125 230.800781 159.070312 232.746094 157.167969 L 244.691406 145.351562 C 246.640625 143.429688 246.902344 140.363281 245.328125 138.132812 L 235.636719 124.527344 C 236.96875 121.964844 238.085938 119.320312 238.984375 116.585938 L 255.523438 113.785156 C 258.214844 113.324219 260.183594 111.003906 260.203125 108.292969 L 260.292969 91.492188 C 260.3125 88.757812 258.34375 86.414062 255.632812 85.957031 L 239.222656 83.175781 C 238.371094 80.421875 237.253906 77.730469 235.964844 75.125 L 245.613281 61.519531 C 247.1875 59.308594 246.945312 56.269531 245.042969 54.34375 L 233.25 42.398438 C 231.304688 40.429688 228.242188 40.1875 226.007812 41.761719 L 212.554688 51.34375 C 209.972656 49.988281 207.304688 48.851562 204.546875 47.953125 L 201.921875 31.613281 C 201.484375 28.921875 199.164062 26.929688 196.429688 26.90625 L 179.628906 26.796875 Z M 187.265625 77.378906 C 193.0625 77.378906 198.859375 79.589844 203.257812 84.050781 C 211.984375 92.890625 211.921875 107.132812 203.082031 115.863281 C 198.707031 120.195312 192.996094 122.359375 187.285156 122.359375 C 181.464844 122.359375 175.667969 120.128906 171.273438 115.6875 C 162.542969 106.847656 162.628906 92.605469 171.46875 83.855469 C 175.84375 79.523438 181.554688 77.378906 187.265625 77.378906 Z M 128.238281 172.414062 C 115.222656 172.414062 109.074219 174.910156 102.578125 177.558594 L 99.621094 178.738281 C 86.101562 183.988281 62.824219 194.949219 61.839844 195.429688 C 59.039062 196.742188 57.835938 200.070312 59.148438 202.871094 C 60.484375 205.667969 85.402344 260.953125 86.691406 262.96875 C 88.355469 265.570312 91.8125 266.3125 94.417969 264.652344 L 108.242188 255.8125 C 114.019531 252.179688 116.273438 251.242188 124.5625 255.460938 L 135.722656 261.152344 C 148.34375 267.582031 165.648438 276.398438 171.117188 279.003906 C 179.34375 282.941406 186.191406 284.429688 192.054688 284.429688 C 202.207031 284.429688 209.359375 279.988281 215.574219 276.160156 C 216.910156 275.328125 218.242188 274.496094 219.597656 273.730469 C 229.09375 268.328125 295.46875 224.988281 302.425781 220.152344 C 310.589844 214.484375 315.203125 208.492188 316.121094 202.367188 C 316.757812 198.1875 316.101562 194.074219 311.222656 190.792969 C 304.835938 186.503906 294.507812 192.957031 294.507812 192.957031 L 242.441406 227.132812 C 239.640625 236.5625 230.867188 245.222656 212.6875 245.222656 L 183.28125 245.222656 C 171.621094 245.222656 155.980469 241.8125 149 240.148438 C 148.847656 240.105469 146.855469 239.625 146.855469 239.625 C 144.449219 238.988281 142.679688 236.800781 142.679688 234.199219 C 142.679688 231.113281 145.195312 228.597656 148.277344 228.597656 C 148.824219 228.597656 149.832031 228.816406 149.832031 228.816406 C 154.953125 230.085938 171.6875 234.023438 183.28125 234.023438 L 212.6875 234.023438 C 225.550781 234.023438 232.289062 228.773438 232.289062 220.019531 C 232.289062 211.992188 225.898438 206.019531 212.6875 206.019531 C 201.769531 206.019531 188.882812 204.007812 176.371094 200.617188 C 168.101562 198.382812 161.207031 180.992188 146.179688 174.910156 C 144.929688 174.40625 139.242188 172.414062 128.238281 172.414062 Z M 241.039062 172.523438 C 233.929688 172.523438 226.773438 175.261719 222.773438 177.601562 C 221.894531 178.148438 207.433594 187.140625 196.804688 193.769531 C 201.746094 194.402344 206.953125 194.816406 212.6875 194.816406 C 216.097656 194.816406 219.074219 195.234375 221.894531 195.847656 L 251.628906 177.402344 C 252.285156 176.964844 253.179688 176.484375 254.1875 175.980469 C 250.90625 174.054688 246.574219 172.523438 241.039062 172.523438 Z M 274.335938 180.136719 C 273.503906 180.136719 272.628906 180.183594 271.691406 180.269531 C 268.125 180.597656 264.03125 182.917969 264.03125 182.917969 L 234.277344 201.359375 C 238.546875 204.707031 241.257812 209.015625 242.527344 213.65625 L 276.503906 191.382812 L 286.195312 185.015625 C 285.691406 184.449219 285.121094 183.902344 284.488281 183.375 C 284.402344 183.289062 284.3125 183.222656 284.203125 183.15625 C 283.589844 182.65625 282.847656 182.195312 282.058594 181.777344 C 281.90625 181.714844 281.753906 181.648438 281.578125 181.582031 C 280.746094 181.1875 279.804688 180.859375 278.757812 180.621094 C 278.582031 180.574219 278.382812 180.554688 278.210938 180.511719 C 277.070312 180.292969 275.824219 180.136719 274.402344 180.136719 C 274.378906 180.136719 274.359375 180.136719 274.335938 180.136719 Z M 274.335938 180.136719 " fill-opacity="1" fill-rule="nonzero"/></g><g fill="#000000" fill-opacity="1"><g transform="translate(108.398784, 339.369705)"><g><path d="M 9.90625 0.328125 C 8.320312 0.328125 6.910156 0.128906 5.671875 -0.265625 C 4.441406 -0.660156 3.289062 -1.332031 2.21875 -2.28125 C 1.625 -2.8125 1.328125 -3.394531 1.328125 -4.03125 C 1.328125 -4.53125 1.507812 -4.972656 1.875 -5.359375 C 2.25 -5.742188 2.703125 -5.9375 3.234375 -5.9375 C 3.648438 -5.9375 4.023438 -5.804688 4.359375 -5.546875 C 5.234375 -4.816406 6.085938 -4.285156 6.921875 -3.953125 C 7.765625 -3.628906 8.757812 -3.46875 9.90625 -3.46875 C 11.132812 -3.46875 12.191406 -3.742188 13.078125 -4.296875 C 13.972656 -4.847656 14.421875 -5.53125 14.421875 -6.34375 C 14.421875 -7.332031 13.976562 -8.109375 13.09375 -8.671875 C 12.21875 -9.234375 10.828125 -9.65625 8.921875 -9.9375 C 4.097656 -10.644531 1.6875 -12.890625 1.6875 -16.671875 C 1.6875 -18.054688 2.046875 -19.257812 2.765625 -20.28125 C 3.492188 -21.3125 4.484375 -22.09375 5.734375 -22.625 C 6.992188 -23.164062 8.394531 -23.4375 9.9375 -23.4375 C 11.320312 -23.4375 12.625 -23.226562 13.84375 -22.8125 C 15.070312 -22.394531 16.09375 -21.84375 16.90625 -21.15625 C 17.539062 -20.65625 17.859375 -20.070312 17.859375 -19.40625 C 17.859375 -18.90625 17.671875 -18.460938 17.296875 -18.078125 C 16.921875 -17.691406 16.484375 -17.5 15.984375 -17.5 C 15.648438 -17.5 15.351562 -17.597656 15.09375 -17.796875 C 14.519531 -18.253906 13.71875 -18.675781 12.6875 -19.0625 C 11.664062 -19.445312 10.75 -19.640625 9.9375 -19.640625 C 8.550781 -19.640625 7.476562 -19.378906 6.71875 -18.859375 C 5.957031 -18.347656 5.578125 -17.675781 5.578125 -16.84375 C 5.578125 -15.894531 5.96875 -15.175781 6.75 -14.6875 C 7.53125 -14.207031 8.757812 -13.8125 10.4375 -13.5 C 12.320312 -13.175781 13.832031 -12.753906 14.96875 -12.234375 C 16.101562 -11.710938 16.957031 -11.003906 17.53125 -10.109375 C 18.101562 -9.222656 18.390625 -8.039062 18.390625 -6.5625 C 18.390625 -5.175781 18 -3.960938 17.21875 -2.921875 C 16.4375 -1.878906 15.394531 -1.078125 14.09375 -0.515625 C 12.800781 0.046875 11.40625 0.328125 9.90625 0.328125 Z M 9.90625 0.328125 "/></g></g></g><g fill="#000000" fill-opacity="1"><g transform="translate(128.10679, 339.369705)"><g><path d="M 15.546875 -3.796875 C 16.117188 -3.796875 16.597656 -3.601562 16.984375 -3.21875 C 17.367188 -2.832031 17.5625 -2.382812 17.5625 -1.875 C 17.5625 -1.332031 17.367188 -0.882812 16.984375 -0.53125 C 16.597656 -0.175781 16.117188 0 15.546875 0 L 4.484375 0 C 3.910156 0 3.429688 -0.191406 3.046875 -0.578125 C 2.660156 -0.960938 2.46875 -1.441406 2.46875 -2.015625 L 2.46875 -21.09375 C 2.46875 -21.664062 2.660156 -22.144531 3.046875 -22.53125 C 3.429688 -22.914062 3.910156 -23.109375 4.484375 -23.109375 L 15.546875 -23.109375 C 16.117188 -23.109375 16.597656 -22.925781 16.984375 -22.5625 C 17.367188 -22.195312 17.5625 -21.726562 17.5625 -21.15625 C 17.5625 -20.613281 17.375 -20.171875 17 -19.828125 C 16.625 -19.484375 16.140625 -19.3125 15.546875 -19.3125 L 6.609375 -19.3125 L 6.609375 -13.703125 L 14.0625 -13.703125 C 14.632812 -13.703125 15.113281 -13.519531 15.5 -13.15625 C 15.882812 -12.789062 16.078125 -12.320312 16.078125 -11.75 C 16.078125 -11.195312 15.890625 -10.75 15.515625 -10.40625 C 15.140625 -10.070312 14.65625 -9.90625 14.0625 -9.90625 L 6.609375 -9.90625 L 6.609375 -3.796875 Z M 15.546875 -3.796875 "/></g></g></g><g fill="#000000" fill-opacity="1"><g transform="translate(146.989506, 339.369705)"><g><path d="M 20.609375 -3.234375 C 20.890625 -3.054688 21.113281 -2.820312 21.28125 -2.53125 C 21.445312 -2.25 21.53125 -1.957031 21.53125 -1.65625 C 21.53125 -1.257812 21.394531 -0.894531 21.125 -0.5625 C 20.800781 -0.164062 20.296875 0.03125 19.609375 0.03125 C 19.078125 0.03125 18.59375 -0.0859375 18.15625 -0.328125 C 16.570312 -1.234375 15.78125 -3.070312 15.78125 -5.84375 C 15.78125 -6.632812 15.519531 -7.257812 15 -7.71875 C 14.488281 -8.1875 13.75 -8.421875 12.78125 -8.421875 L 6.609375 -8.421875 L 6.609375 -2.015625 C 6.609375 -1.421875 6.445312 -0.9375 6.125 -0.5625 C 5.800781 -0.1875 5.378906 0 4.859375 0 C 4.210938 0 3.648438 -0.191406 3.171875 -0.578125 C 2.703125 -0.960938 2.46875 -1.441406 2.46875 -2.015625 L 2.46875 -21.09375 C 2.46875 -21.664062 2.660156 -22.144531 3.046875 -22.53125 C 3.429688 -22.914062 3.910156 -23.109375 4.484375 -23.109375 L 14 -23.109375 C 15.144531 -23.109375 16.222656 -22.800781 17.234375 -22.1875 C 18.242188 -21.570312 19.050781 -20.722656 19.65625 -19.640625 C 20.257812 -18.566406 20.5625 -17.359375 20.5625 -16.015625 C 20.5625 -14.910156 20.265625 -13.832031 19.671875 -12.78125 C 19.078125 -11.738281 18.304688 -10.910156 17.359375 -10.296875 C 18.753906 -9.328125 19.515625 -8.03125 19.640625 -6.40625 C 19.710938 -6.050781 19.75 -5.707031 19.75 -5.375 C 19.832031 -4.695312 19.914062 -4.207031 20 -3.90625 C 20.09375 -3.613281 20.296875 -3.390625 20.609375 -3.234375 Z M 13.828125 -11.8125 C 14.222656 -11.8125 14.609375 -12 14.984375 -12.375 C 15.359375 -12.75 15.664062 -13.25 15.90625 -13.875 C 16.15625 -14.507812 16.28125 -15.1875 16.28125 -15.90625 C 16.28125 -16.53125 16.15625 -17.097656 15.90625 -17.609375 C 15.664062 -18.128906 15.359375 -18.539062 14.984375 -18.84375 C 14.609375 -19.15625 14.222656 -19.3125 13.828125 -19.3125 L 6.609375 -19.3125 L 6.609375 -11.8125 Z M 13.828125 -11.8125 "/></g></g></g><g fill="#000000" fill-opacity="1"><g transform="translate(169.66857, 339.369705)"><g><path d="M 19.34375 -23.171875 C 19.894531 -23.171875 20.375 -22.984375 20.78125 -22.609375 C 21.1875 -22.234375 21.390625 -21.785156 21.390625 -21.265625 C 21.390625 -20.972656 21.328125 -20.675781 21.203125 -20.375 L 13.046875 -1.28125 C 12.847656 -0.863281 12.570312 -0.546875 12.21875 -0.328125 C 11.863281 -0.109375 11.488281 0 11.09375 0 C 10.71875 -0.0195312 10.367188 -0.132812 10.046875 -0.34375 C 9.734375 -0.550781 9.488281 -0.851562 9.3125 -1.25 L 1.15625 -20.40625 C 1.039062 -20.625 0.984375 -20.898438 0.984375 -21.234375 C 0.984375 -21.828125 1.203125 -22.300781 1.640625 -22.65625 C 2.085938 -23.019531 2.539062 -23.203125 3 -23.203125 C 3.375 -23.203125 3.726562 -23.09375 4.0625 -22.875 C 4.394531 -22.65625 4.644531 -22.335938 4.8125 -21.921875 L 11.453125 -6.3125 L 17.53125 -21.921875 C 17.707031 -22.316406 17.957031 -22.625 18.28125 -22.84375 C 18.613281 -23.0625 18.96875 -23.171875 19.34375 -23.171875 Z M 19.34375 -23.171875 "/></g></g></g><g fill="#000000" fill-opacity="1"><g transform="translate(192.050523, 339.369705)"><g><path d="M 6.609375 -2.015625 C 6.609375 -1.441406 6.394531 -0.960938 5.96875 -0.578125 C 5.550781 -0.191406 5.066406 0 4.515625 0 C 3.921875 0 3.429688 -0.191406 3.046875 -0.578125 C 2.660156 -0.960938 2.46875 -1.441406 2.46875 -2.015625 L 2.46875 -21.09375 C 2.46875 -21.664062 2.664062 -22.144531 3.0625 -22.53125 C 3.46875 -22.914062 3.976562 -23.109375 4.59375 -23.109375 C 5.144531 -23.109375 5.617188 -22.914062 6.015625 -22.53125 C 6.410156 -22.144531 6.609375 -21.664062 6.609375 -21.09375 Z M 6.609375 -2.015625 "/></g></g></g><g fill="#000000" fill-opacity="1"><g transform="translate(201.128754, 339.369705)"><g><path d="M 19.21875 -3.921875 C 19.539062 -3.503906 19.703125 -3.054688 19.703125 -2.578125 C 19.703125 -2.222656 19.613281 -1.898438 19.4375 -1.609375 C 19.269531 -1.328125 19.019531 -1.109375 18.6875 -0.953125 C 17.082031 -0.160156 15.363281 0.265625 13.53125 0.328125 L 12.21875 3.921875 C 11.945312 4.628906 11.492188 4.984375 10.859375 4.984375 C 10.441406 4.984375 9.976562 4.835938 9.46875 4.546875 C 8.96875 4.265625 8.71875 3.90625 8.71875 3.46875 C 8.71875 3.132812 8.847656 2.800781 9.109375 2.46875 L 10.859375 0.125 C 9.054688 -0.175781 7.429688 -0.816406 5.984375 -1.796875 C 4.546875 -2.773438 3.410156 -4.09375 2.578125 -5.75 C 1.742188 -7.414062 1.328125 -9.351562 1.328125 -11.5625 C 1.328125 -13.800781 1.835938 -15.8125 2.859375 -17.59375 C 3.878906 -19.375 5.289062 -20.765625 7.09375 -21.765625 C 8.90625 -22.773438 10.941406 -23.28125 13.203125 -23.28125 C 15.160156 -23.28125 16.976562 -22.847656 18.65625 -21.984375 C 19.332031 -21.628906 19.671875 -21.066406 19.671875 -20.296875 C 19.671875 -19.835938 19.507812 -19.390625 19.1875 -18.953125 C 18.832031 -18.484375 18.378906 -18.25 17.828125 -18.25 C 17.453125 -18.25 17.078125 -18.351562 16.703125 -18.5625 C 15.628906 -19.0625 14.460938 -19.3125 13.203125 -19.3125 C 11.660156 -19.3125 10.316406 -18.984375 9.171875 -18.328125 C 8.035156 -17.679688 7.15625 -16.769531 6.53125 -15.59375 C 5.914062 -14.414062 5.609375 -13.070312 5.609375 -11.5625 C 5.609375 -8.957031 6.304688 -6.984375 7.703125 -5.640625 C 9.109375 -4.296875 10.941406 -3.625 13.203125 -3.625 C 14.546875 -3.625 15.710938 -3.878906 16.703125 -4.390625 C 17.097656 -4.566406 17.453125 -4.65625 17.765625 -4.65625 C 18.335938 -4.65625 18.820312 -4.410156 19.21875 -3.921875 Z M 19.21875 -3.921875 "/></g></g></g><g fill="#000000" fill-opacity="1"><g transform="translate(221.82711, 339.369705)"><g><path d="M 23.734375 -11.5625 C 23.734375 -9.375 23.25 -7.375 22.28125 -5.5625 C 21.3125 -3.75 19.972656 -2.3125 18.265625 -1.25 C 16.566406 -0.195312 14.648438 0.328125 12.515625 0.328125 C 10.378906 0.328125 8.457031 -0.195312 6.75 -1.25 C 5.039062 -2.3125 3.707031 -3.75 2.75 -5.5625 C 1.800781 -7.375 1.328125 -9.375 1.328125 -11.5625 C 1.328125 -13.738281 1.800781 -15.734375 2.75 -17.546875 C 3.707031 -19.359375 5.039062 -20.789062 6.75 -21.84375 C 8.457031 -22.90625 10.378906 -23.4375 12.515625 -23.4375 C 14.648438 -23.4375 16.566406 -22.90625 18.265625 -21.84375 C 19.972656 -20.789062 21.3125 -19.359375 22.28125 -17.546875 C 23.25 -15.734375 23.734375 -13.738281 23.734375 -11.5625 Z M 19.453125 -11.5625 C 19.453125 -13.03125 19.148438 -14.363281 18.546875 -15.5625 C 17.953125 -16.757812 17.128906 -17.710938 16.078125 -18.421875 C 15.023438 -19.128906 13.835938 -19.484375 12.515625 -19.484375 C 11.171875 -19.484375 9.972656 -19.132812 8.921875 -18.4375 C 7.878906 -17.75 7.066406 -16.796875 6.484375 -15.578125 C 5.898438 -14.367188 5.609375 -13.03125 5.609375 -11.5625 C 5.609375 -10.082031 5.898438 -8.738281 6.484375 -7.53125 C 7.066406 -6.320312 7.878906 -5.367188 8.921875 -4.671875 C 9.972656 -3.972656 11.171875 -3.625 12.515625 -3.625 C 13.835938 -3.625 15.023438 -3.976562 16.078125 -4.6875 C 17.128906 -5.394531 17.953125 -6.347656 18.546875 -7.546875 C 19.148438 -8.742188 19.453125 -10.082031 19.453125 -11.5625 Z M 19.453125 -11.5625 "/></g></g></g><g fill="#000000" fill-opacity="1"><g transform="translate(246.88302, 339.369705)"><g><path d="M 9.90625 0.328125 C 8.320312 0.328125 6.910156 0.128906 5.671875 -0.265625 C 4.441406 -0.660156 3.289062 -1.332031 2.21875 -2.28125 C 1.625 -2.8125 1.328125 -3.394531 1.328125 -4.03125 C 1.328125 -4.53125 1.507812 -4.972656 1.875 -5.359375 C 2.25 -5.742188 2.703125 -5.9375 3.234375 -5.9375 C 3.648438 -5.9375 4.023438 -5.804688 4.359375 -5.546875 C 5.234375 -4.816406 6.085938 -4.285156 6.921875 -3.953125 C 7.765625 -3.628906 8.757812 -3.46875 9.90625 -3.46875 C 11.132812 -3.46875 12.191406 -3.742188 13.078125 -4.296875 C 13.972656 -4.847656 14.421875 -5.53125 14.421875 -6.34375 C 14.421875 -7.332031 13.976562 -8.109375 13.09375 -8.671875 C 12.21875 -9.234375 10.828125 -9.65625 8.921875 -9.9375 C 4.097656 -10.644531 1.6875 -12.890625 1.6875 -16.671875 C 1.6875 -18.054688 2.046875 -19.257812 2.765625 -20.28125 C 3.492188 -21.3125 4.484375 -22.09375 5.734375 -22.625 C 6.992188 -23.164062 8.394531 -23.4375 9.9375 -23.4375 C 11.320312 -23.4375 12.625 -23.226562 13.84375 -22.8125 C 15.070312 -22.394531 16.09375 -21.84375 16.90625 -21.15625 C 17.539062 -20.65625 17.859375 -20.070312 17.859375 -19.40625 C 17.859375 -18.90625 17.671875 -18.460938 17.296875 -18.078125 C 16.921875 -17.691406 16.484375 -17.5 15.984375 -17.5 C 15.648438 -17.5 15.351562 -17.597656 15.09375 -17.796875 C 14.519531 -18.253906 13.71875 -18.675781 12.6875 -19.0625 C 11.664062 -19.445312 10.75 -19.640625 9.9375 -19.640625 C 8.550781 -19.640625 7.476562 -19.378906 6.71875 -18.859375 C 5.957031 -18.347656 5.578125 -17.675781 5.578125 -16.84375 C 5.578125 -15.894531 5.96875 -15.175781 6.75 -14.6875 C 7.53125 -14.207031 8.757812 -13.8125 10.4375 -13.5 C 12.320312 -13.175781 13.832031 -12.753906 14.96875 -12.234375 C 16.101562 -11.710938 16.957031 -11.003906 17.53125 -10.109375 C 18.101562 -9.222656 18.390625 -8.039062 18.390625 -6.5625 C 18.390625 -5.175781 18 -3.960938 17.21875 -2.921875 C 16.4375 -1.878906 15.394531 -1.078125 14.09375 -0.515625 C 12.800781 0.046875 11.40625 0.328125 9.90625 0.328125 Z M 9.90625 0.328125 "/></g></g></g></svg>